<?xml version="1.0" encoding="UTF-8" standalone="no"?>
<svg
   xmlns:dc="http://purl.org/dc/elements/1.1/"
   xmlns:cc="http://creativecommons.org/ns#"
   xmlns:rdf="http://www.w3.org/1999/02/22-rdf-syntax-ns#"
   xmlns:svg="http://www.w3.org/2000/svg"
   xmlns="http://www.w3.org/2000/svg"
   xmlns:xlink="http://www.w3.org/1999/xlink"
   id="svg8"
   version="1.1"
   viewBox="0 0 210 297"
   height="297mm"
   width="210mm">
  <defs
     id="defs2">
    <linearGradient
       id="linearGradient3841">
      <stop
         id="stop3837"
         offset="0"
         style="stop-color:#000000;stop-opacity:1;" />
      <stop
         id="stop3839"
         offset="1"
         style="stop-color:#000000;stop-opacity:0;" />
    </linearGradient>
    <linearGradient
       spreadMethod="reflect"
       gradientUnits="userSpaceOnUse"
       y2="139.3054"
       x2="214.28572"
       y1="249.3054"
       x1="203.21429"
       id="linearGradient3843"
       xlink:href="#linearGradient3841" />
    <linearGradient
       spreadMethod="reflect"
       y2="139.3054"
       x2="214.28572"
       y1="249.3054"
       x1="203.21429"
       gradientUnits="userSpaceOnUse"
       id="linearGradient3866"
       xlink:href="#linearGradient3841" />
  </defs>
  <metadata
     id="metadata5">
    <rdf:RDF>
      <cc:Work
         rdf:about="">
        <dc:format>image/svg+xml</dc:format>
        <dc:type
           rdf:resource="http://purl.org/dc/dcmitype/StillImage" />
        <dc:title></dc:title>
      </cc:Work>
    </rdf:RDF>
  </metadata>
  <g
     id="layer1">
    <g
       id="flowRoot3721"
       style="font-style:normal;font-variant:normal;font-weight:normal;font-stretch:normal;font-size:74.66666412px;line-height:1.25;font-family:'DejaVu Sans Mono';-inkscape-font-specification:'DejaVu Sans Mono';letter-spacing:0px;word-spacing:0px;fill:url(#linearGradient3843);fill-opacity:1;stroke:none"
       transform="scale(0.26458333)"
       aria-label="Luminosity">
      <path
         id="path3845"
         style="font-style:italic;font-variant:normal;font-weight:bold;font-stretch:normal;font-family:'Palatino Linotype';-inkscape-font-specification:'Palatino Linotype Bold Italic';fill:url(#linearGradient3866);fill-opacity:1"
         d="M 40.022786,204.26041 40.277995,202.32812 40.642578,202 q 2.734375,-0.65625 3.28125,-0.98438 0.328125,-0.18229 0.473958,-0.36458 0.182292,-0.18229 0.364584,-0.61979 0.510416,-1.38542 1.458333,-6.89063 l 4.630208,-27.19791 q 1.057292,-6.67188 1.057292,-8.34896 0,-0.91146 -0.473959,-1.3125 -0.473958,-0.4375 -1.130208,-0.51042 -0.65625,-0.10937 -5.067708,-0.36458 l -0.21875,-0.29167 0.255208,-1.96875 0.364584,-0.32812 q 5.140624,0.25521 11.520832,0.25521 1.713542,0 11.776042,-0.25521 l 0.21875,0.29166 -0.291667,2.00521 -0.328125,0.29167 q -4.083333,0.14583 -4.703125,0.29167 -0.583333,0.14583 -1.057291,0.61979 -0.473959,0.4375 -0.947917,2.15104 -0.473958,1.71354 -1.713542,8.67708 L 55.517577,193.25 q -0.947916,4.99479 -1.130208,7.47396 h 6.052083 q 4.59375,0 7.984375,-0.21875 3.427083,-0.21875 4.666667,-0.58334 1.239583,-0.36458 1.822916,-1.09375 0.583333,-0.72916 1.421875,-3.90104 0.182292,-0.80208 0.947917,-3.13542 L 77.574868,191.5 h 2.151042 l 0.255208,0.29166 q -0.109375,0.875 -0.692708,3.60938 -0.473958,2.1875 -0.911458,4.66667 -0.546875,2.98958 -0.838542,4.15625 l -0.401042,0.32812 q -6.124999,-0.10937 -8.932291,-0.10937 l -14.729166,-0.14584 q -8.421875,0 -13.197916,0.21875 z" />
      <path
         id="path3847"
         style="font-style:italic;font-variant:normal;font-weight:bold;font-stretch:normal;font-family:'Palatino Linotype';-inkscape-font-specification:'Palatino Linotype Bold Italic';fill:url(#linearGradient3843);fill-opacity:1"
         d="m 85.304035,178.19271 -0.583333,-1.38542 0.07292,-0.51042 q 5.140625,-3.7552 8.53125,-5.6875 3.390625,-1.96875 5.432292,-1.96875 2.36979,0 2.36979,2.88021 0,1.38542 -0.4375,3.46354 -0.40104,2.07813 -1.604165,6.67188 l -3.0625,12.25 q -0.546875,2.55208 -0.546875,3.60937 0,1.53125 1.276041,1.53125 0.802084,0 2.369792,-1.02083 1.567707,-1.05729 4.666667,-5.03125 2.40625,-3.0625 4.41146,-7.14583 2.00521,-4.11979 3.46354,-9.69792 0.76562,-3.0625 0.98437,-5.76042 3.75521,-0.21875 7.94792,-1.45833 l 0.61979,0.65625 q -2.22396,7.14583 -4.52083,16.29688 -2.26042,9.15104 -2.26042,11.92187 0,1.34896 1.05729,1.34896 0.6198,0 1.3125,-0.40104 0.69271,-0.4375 1.71355,-1.20313 1.1302,-0.80208 1.89583,-1.34896 h 0.4375 l 0.80208,1.42188 -0.10937,0.47396 q -7.47396,5.61458 -9.47917,6.63541 -2.00521,1.02084 -3.5,1.02084 -1.13021,0 -1.75,-0.83855 -0.61979,-0.80208 -0.61979,-2.22395 0,-2.1875 1.85937,-9.33334 l 1.42188,-5.54166 q -3.5,6.8177 -9.515625,12.5052 -5.979167,5.6875 -9.625,5.6875 -1.567708,0 -2.552083,-1.09375 -0.984375,-1.09375 -0.984375,-3.24479 0,-1.42187 0.291666,-3.02604 0.328125,-1.60417 1.640625,-6.52604 3.135417,-11.73958 3.135417,-14.94792 0,-1.53125 -1.057292,-1.53125 -0.4375,0 -1.057291,0.25521 -0.583334,0.25521 -3.9375,2.36979 z m 22.640625,-11.73959 z m -9.479167,40.21354 z" />
      <path
         id="path3849"
         style="font-style:italic;font-variant:normal;font-weight:bold;font-stretch:normal;font-family:'Palatino Linotype';-inkscape-font-specification:'Palatino Linotype Bold Italic';fill:url(#linearGradient3843);fill-opacity:1"
         d="m 128.17903,205.68229 -0.72917,-1.05729 q 0.0365,-0.14584 0.875,-2.80729 1.78646,-5.72396 3.5,-13.70834 1.75,-7.98437 1.75,-10.68229 0,-0.72916 -0.32812,-1.16666 -0.32813,-0.47396 -0.76563,-0.47396 -0.40104,0 -1.09375,0.47396 -0.6927,0.4375 -4.11979,2.98958 l -0.51041,-0.0365 -0.72917,-1.27604 0.0365,-0.51042 q 2.625,-2.22396 6.125,-4.88541 3.53646,-2.66146 5.17708,-3.35417 1.67708,-0.69271 2.77083,-0.69271 0.94792,0 1.45834,0.69271 0.54687,0.69271 0.54687,1.64062 0,1.13021 -0.51041,3.64584 -0.51042,2.51562 -2.98959,13.3802 4.77604,-8.89583 10.75521,-14.10937 5.97917,-5.25 9.69792,-5.25 1.13021,0 1.85937,0.83854 0.72917,0.80209 0.72917,2.11459 0,1.05729 -0.32813,2.98958 -0.32812,1.93229 -1.23958,5.57812 l -2.00521,7.83854 q 4.63021,-9.22395 10.97396,-14.18229 6.34375,-4.99479 10.39062,-4.99479 1.3125,0 1.96875,1.02084 0.65625,1.02083 0.65625,2.55208 0,2.58854 -1.34895,7.72917 -4.19271,15.64062 -4.19271,18.33854 0,1.23958 0.83854,1.23958 0.98437,0 5.57812,-3.35417 l 0.4375,0.0365 0.80209,1.42188 -0.10938,0.47395 q -6.08854,4.44792 -8.96875,6.08855 -2.88021,1.64062 -4.70312,1.64062 -1.23959,0 -2.00521,-0.94792 -0.72917,-0.94791 -0.72917,-2.29687 0,-1.64063 0.61979,-4.55729 0.65625,-2.91667 2.29688,-9.1875 1.49479,-5.79688 1.89583,-7.875 0.4375,-2.11458 0.4375,-3.20833 0,-1.71355 -1.16666,-1.71355 -0.875,0 -2.58855,1.0573 -1.71354,1.05729 -4.26562,3.9375 -2.55208,2.84375 -4.55729,6.59895 -1.96875,3.71875 -3.42708,9.47917 -1.45834,5.72396 -1.45834,7.47396 -2.625,0 -7.72916,1.05729 l -0.875,-1.05729 q 2.07812,-5.25 4.22916,-14.54688 2.1875,-9.33333 2.1875,-12.54166 0,-0.76563 -0.36458,-1.16667 -0.32813,-0.40104 -0.83854,-0.40104 -0.94792,0 -2.77084,1.16667 -1.78645,1.16666 -4.41145,4.59375 -2.58855,3.42708 -4.48438,7.07291 -1.85937,3.60938 -3.02604,8.56771 -1.13021,4.92187 -1.23958,6.89062 -2.3698,0 -7.98438,1.42188 z" />
      <path
         id="path3851"
         style="font-style:italic;font-variant:normal;font-weight:bold;font-stretch:normal;font-family:'Palatino Linotype';-inkscape-font-specification:'Palatino Linotype Bold Italic';fill:url(#linearGradient3843);fill-opacity:1"
         d="m 200.94986,157.44792 q 0,-2.26042 1.42187,-3.86459 1.42188,-1.60416 3.64584,-1.60416 1.89583,0 2.98958,1.16666 1.09375,1.13021 1.09375,2.95313 0,2.22396 -1.3125,4.04687 -1.3125,1.78646 -3.68229,1.78646 -2.22396,0 -3.20833,-1.27604 -0.94792,-1.27604 -0.94792,-3.20833 z m -11.44792,22.09375 -0.72916,-1.27605 0.0729,-0.47395 q 6.41667,-4.9948 9.98959,-7.07292 3.60937,-2.07813 5.61458,-2.07813 0.91146,0 1.56771,0.80209 0.65625,0.76562 0.65625,1.96875 0,1.60416 -0.58334,4.04687 -0.54687,2.44271 -2.36979,9.26042 -3.17187,11.73958 -3.17187,13.59896 0,0.51041 0.29166,0.91145 0.32813,0.36459 0.72917,0.36459 1.09375,0 5.83333,-3.39063 l 0.4375,0.0365 0.80209,1.45833 -0.14584,0.47396 q -2.55208,1.82292 -6.08854,4.19271 -3.53646,2.33333 -5.06771,2.91667 -1.49479,0.58333 -2.625,0.58333 -1.42187,0 -2.11458,-1.05729 -0.69271,-1.05729 -0.69271,-2.73438 0,-1.67708 0.40104,-3.79166 0.4375,-2.15104 1.82292,-7.40104 3.0625,-11.70313 3.0625,-13.78125 0,-1.02084 -0.83854,-1.02084 -1.38542,0 -6.34375,3.5 z m 4.95834,27.12499 z" />
      <path
         id="path3853"
         style="font-style:italic;font-variant:normal;font-weight:bold;font-stretch:normal;font-family:'Palatino Linotype';-inkscape-font-specification:'Palatino Linotype Bold Italic';fill:url(#linearGradient3843);fill-opacity:1"
         d="m 214.76757,205.64583 -0.94792,-0.91146 q 1.13021,-2.84375 2.91667,-9.47916 1.78646,-6.67188 2.58854,-11.59375 0.83854,-4.92188 0.83854,-6.27084 0,-1.23958 -0.83854,-1.23958 -1.13021,0 -5.25,3.0625 l -0.51042,-0.0365 -0.72916,-1.27604 0.0365,-0.47396 q 1.89584,-1.60416 4.41146,-3.53646 2.51563,-1.96875 4.55729,-3.24479 2.04167,-1.3125 3.0625,-1.64062 1.02084,-0.36459 1.85938,-0.36459 2.00521,0 2.00521,2.3698 0,1.71354 -0.65625,4.99479 -0.65625,3.24479 -2.73438,11.08333 4.11979,-7.61979 10.35417,-13.01562 6.27083,-5.39584 10.17187,-5.39584 3.09896,0 3.09896,3.46354 0,1.89584 -0.83854,5.4323 -0.83854,3.5 -2.69792,10.3177 -1.23958,4.52084 -1.71354,7.07292 -0.4375,2.51562 -0.4375,3.24479 0,1.34896 0.875,1.34896 1.42188,0 5.35938,-2.98958 l 0.4375,0.0365 0.80208,1.42188 -0.10938,0.47396 q -6.23437,4.70312 -8.93229,6.01562 -2.69791,1.34896 -4.6302,1.34896 -1.53125,0 -2.07813,-1.20312 -0.51042,-1.16667 -0.51042,-2.44271 0,-2.95313 2.55209,-12.03125 2.80729,-9.84375 2.80729,-12.57813 0,-1.49479 -1.42188,-1.49479 -0.65625,0 -1.82291,0.58334 -1.13021,0.58333 -3.35417,2.8802 -2.1875,2.26042 -4.04687,5.14063 -1.82292,2.88021 -3.20834,6.23437 -1.34896,3.35417 -2.26041,7.21875 -0.91146,3.82813 -1.13021,6.08854 -4.63021,0.36459 -7.875,1.38542 z" />
      <path
         id="path3855"
         style="font-style:italic;font-variant:normal;font-weight:bold;font-stretch:normal;font-family:'Palatino Linotype';-inkscape-font-specification:'Palatino Linotype Bold Italic';fill:url(#linearGradient3843);fill-opacity:1"
         d="m 256.80403,194.08854 q 0,-3.39063 1.1302,-8.49479 1.16667,-5.14063 3.9375,-8.56771 2.8073,-3.46354 7.54688,-5.90625 4.73958,-2.47917 9.77083,-2.47917 5.17709,0 8.42188,2.95313 3.24479,2.95312 3.24479,8.85937 0,5.35938 -2.00521,10.97396 -2.00521,5.57813 -5.35937,8.16667 -3.31771,2.58854 -7,4.44791 -3.64584,1.82292 -8.3125,1.82292 -4.44792,0 -6.92709,-1.71354 -2.47916,-1.71354 -3.46354,-4.41146 -0.98437,-2.69792 -0.98437,-5.65104 z m 8.60416,-0.29167 q 0,4.44792 1.67709,6.45313 1.67708,2.00521 4.8125,2.00521 2.15104,0 3.82812,-1.20313 1.71354,-1.20312 3.13542,-4.30208 1.45833,-3.13542 2.33333,-7.76563 0.91146,-4.6302 0.91146,-8.42187 0,-4.77604 -1.85938,-6.67188 -1.85937,-1.89583 -4.52083,-1.89583 -2.80729,0 -4.95833,2.15104 -2.11459,2.15104 -3.75521,8.42188 -1.60417,6.23437 -1.60417,11.22916 z m 12.86979,-27.34375 z m -8.75,40.21354 z" />
      <path
         id="path3857"
         style="font-style:italic;font-variant:normal;font-weight:bold;font-stretch:normal;font-family:'Palatino Linotype';-inkscape-font-specification:'Palatino Linotype Bold Italic';fill:url(#linearGradient3843);fill-opacity:1"
         d="m 298.43944,193.54166 h 1.64063 l 0.32812,0.32813 0.10938,3.24479 q 1.42187,1.75 3.9375,3.0625 2.55208,1.27604 5.35937,1.27604 1.96875,0 3.57292,-0.58333 1.64062,-0.61979 2.44271,-2.07813 0.80208,-1.45833 0.80208,-2.98958 0,-1.38542 -0.69271,-2.40625 -0.65625,-1.02083 -1.78646,-1.60417 -1.1302,-0.61979 -3.64583,-1.16666 -3.68229,-0.83854 -5.21354,-1.27604 -1.49479,-0.47396 -2.69792,-1.42188 -1.16666,-0.94791 -1.96875,-2.625 -0.76562,-1.67708 -0.76562,-3.64583 0,-1.96875 0.72916,-3.75521 0.76563,-1.82292 2.11459,-3.09896 1.38541,-1.3125 4.44791,-3.20833 3.0625,-1.89583 4.70313,-2.40625 1.64062,-0.54688 4.01042,-0.54688 4.92187,0 9.07812,2.33334 -0.72917,3.5 -1.27604,8.53125 l -0.32813,0.29166 h -1.60416 l -0.32813,-0.29166 -0.40104,-3.35417 q -1.64062,-1.60417 -3.9375,-2.47917 -2.26042,-0.875 -4.375,-0.875 -2.55208,0 -4.26562,1.4948 -1.71355,1.45833 -1.71355,3.79166 0,2.51563 1.71355,3.64584 1.71354,1.09375 6.63541,2.04166 3.42709,0.65625 5.06771,1.45834 1.67708,0.76562 2.77083,2.58854 1.09375,1.82291 1.09375,4.22916 0,2.51563 -1.05729,4.48438 -1.05729,1.93229 -4.30208,4.48437 -3.24479,2.51563 -5.6875,3.53646 -2.44271,1.02083 -6.34375,1.02083 -1.96875,0 -4.01042,-0.29166 -2.04166,-0.29167 -5.76041,-1.75 l -0.14584,-0.36459 q 0.36459,-1.23958 0.83854,-4.52083 0.51042,-3.28125 0.58334,-4.77604 z" />
      <path
         id="path3859"
         style="font-style:italic;font-variant:normal;font-weight:bold;font-stretch:normal;font-family:'Palatino Linotype';-inkscape-font-specification:'Palatino Linotype Bold Italic';fill:url(#linearGradient3843);fill-opacity:1"
         d="m 342.11652,157.44792 q 0,-2.26042 1.42187,-3.86459 1.42188,-1.60416 3.64583,-1.60416 1.89584,0 2.98959,1.16666 1.09375,1.13021 1.09375,2.95313 0,2.22396 -1.3125,4.04687 -1.3125,1.78646 -3.68229,1.78646 -2.22396,0 -3.20834,-1.27604 -0.94791,-1.27604 -0.94791,-3.20833 z m -11.44792,22.09375 -0.72917,-1.27605 0.0729,-0.47395 q 6.41667,-4.9948 9.98958,-7.07292 3.60938,-2.07813 5.61459,-2.07813 0.91145,0 1.5677,0.80209 0.65625,0.76562 0.65625,1.96875 0,1.60416 -0.58333,4.04687 -0.54687,2.44271 -2.36979,9.26042 -3.17188,11.73958 -3.17188,13.59896 0,0.51041 0.29167,0.91145 0.32813,0.36459 0.72917,0.36459 1.09375,0 5.83333,-3.39063 l 0.4375,0.0365 0.80208,1.45833 -0.14583,0.47396 q -2.55208,1.82292 -6.08854,4.19271 -3.53646,2.33333 -5.06771,2.91667 -1.49479,0.58333 -2.625,0.58333 -1.42187,0 -2.11458,-1.05729 -0.69271,-1.05729 -0.69271,-2.73438 0,-1.67708 0.40104,-3.79166 0.4375,-2.15104 1.82292,-7.40104 3.0625,-11.70313 3.0625,-13.78125 0,-1.02084 -0.83854,-1.02084 -1.38542,0 -6.34375,3.5 z m 4.95833,27.12499 z" />
      <path
         id="path3861"
         style="font-style:italic;font-variant:normal;font-weight:bold;font-stretch:normal;font-family:'Palatino Linotype';-inkscape-font-specification:'Palatino Linotype Bold Italic';fill:url(#linearGradient3843);fill-opacity:1"
         d="m 364.24672,174 h -7.61979 l -0.25521,-0.36458 0.21875,-1.27605 0.4375,-0.4375 q 3.02605,-0.6927 8.20313,-2.4427 0.0729,-0.83855 0.51042,-3.53646 0.72916,-4.04688 0.72916,-6.78125 2.1875,-0.47396 6.59896,-2.07813 2.00521,-0.72916 2.47917,-0.875 l 0.83854,0.91146 q -1.16667,3.57292 -3.31771,12.97917 h 3.75521 q 4.375,0 6.16146,-0.29167 l 0.40104,0.58333 q -0.51042,1.67709 -0.83854,3.5 l -0.47396,0.36459 Q 379.37693,174 376.1686,174 h -3.90104 q -0.61979,3.0625 -1.45834,6.96354 l -1.53125,7.14583 -1.1302,5.54167 q -0.4375,2.33333 -0.54688,3.02604 -0.0729,0.69271 -0.0729,1.23958 0,0.94792 0.47396,1.42188 0.51042,0.47396 1.23959,0.47396 0.65625,0 1.42187,-0.29167 0.76563,-0.32812 2.07813,-1.13021 1.3125,-0.83854 4.55729,-3.09896 l 0.51041,0.0365 0.72917,1.42188 -0.0729,0.4375 q -8.38541,6.125 -11.04687,7.40104 -2.625,1.27604 -4.22917,1.27604 -2.11458,0 -3.20833,-1.3125 -1.05729,-1.3125 -1.05729,-3.42708 0,-1.34896 0.36458,-3.35417 0.36458,-2.00521 2.04167,-9.625 2.84375,-13.125 2.91666,-14.14583 z" />
      <path
         id="path3863"
         style="font-style:italic;font-variant:normal;font-weight:bold;font-stretch:normal;font-family:'Palatino Linotype';-inkscape-font-specification:'Palatino Linotype Bold Italic';fill:url(#linearGradient3843);fill-opacity:1"
         d="m 383.53319,217.82291 4.59375,-2.95312 1.09375,0.4375 q -0.0729,0.76562 -0.0729,1.42187 0,2.00521 1.3125,3.46355 1.3125,1.45833 3.53645,1.45833 1.23959,0 2.44271,-0.54688 1.20313,-0.51041 2.40625,-1.78645 1.23959,-1.23959 2.40625,-3.64584 1.16667,-2.36979 2.55209,-6.89062 1.38541,-4.52084 2.36979,-8.64063 l 2.00521,-8.09375 q -4.92188,7.14584 -8.96875,10.42709 -4.04688,3.28125 -6.23438,3.28125 -1.45833,0 -2.55208,-1.67709 -1.09375,-1.67708 -1.09375,-5.65104 0,-2.04167 1.38541,-14.40104 0.29167,-4.66667 0.29167,-5.28646 0,-1.93229 -0.29167,-2.51562 -0.29166,-0.61979 -1.05729,-0.61979 -1.16666,0 -5.35937,3.0625 l -0.54688,-0.0729 -0.69271,-1.20313 0.0365,-0.58333 4.33854,-3.35417 q 3.20834,-2.51562 5.35938,-3.64583 2.15104,-1.13021 3.60937,-1.13021 1.42188,0 2.1875,1.20313 0.76563,1.16666 0.76563,3.39062 0,1.3125 -0.58333,6.89063 l -0.72917,6.52604 q -0.69271,6.38021 -0.69271,9.11458 0,2.36979 0.47396,2.88021 0.51042,0.47396 0.83854,0.47396 0.875,0 2.69792,-1.60417 1.82291,-1.60417 4.41146,-5.79687 2.625,-4.19271 4.52083,-10.0625 1.89583,-5.86979 2.58854,-11.01042 l 8.34896,-1.82292 0.83854,0.69271 q -0.25521,0.51042 -1.75,5.39584 -1.49479,4.88541 -3.35417,12.10416 -2.36979,9.26042 -4.11979,14.65625 -1.71354,5.35938 -4.01041,9.55208 -2.29688,4.19271 -5.28646,7.32813 -2.98959,3.13542 -6.125,4.8125 -3.13542,1.71354 -6.27084,1.71354 -3.17187,0 -5.39583,-1.60417 -2.22396,-1.5677 -2.22396,-4.88541 z m 23.36979,-51.36979 z m 9.73438,40.21354 z" />
    </g>
    <flowRoot
       style="fill:black;fill-opacity:1;stroke:none;font-family:'DejaVu Sans Mono';font-style:normal;font-weight:normal;font-size:74.66666667px;line-height:1.25;letter-spacing:0px;word-spacing:0px;-inkscape-font-specification:'DejaVu Sans Mono';font-stretch:normal;font-variant:normal;"
       id="flowRoot3729"
       xml:space="preserve"><flowRegion
         style="-inkscape-font-specification:'DejaVu Sans Mono';font-family:'DejaVu Sans Mono';font-weight:normal;font-style:normal;font-stretch:normal;font-variant:normal;"
         id="flowRegion3731"><rect
           style="-inkscape-font-specification:'DejaVu Sans Mono';font-family:'DejaVu Sans Mono';font-weight:normal;font-style:normal;font-stretch:normal;font-variant:normal;"
           y="133.94826"
           x="7.1428571"
           height="128.57143"
           width="442.85715"
           id="rect3733" /></flowRegion><flowPara
         id="flowPara3735"></flowPara></flowRoot>  </g>
</svg>
