<?xml version="1.0" encoding="UTF-8" standalone="no"?>
<!-- Created with Inkscape (http://www.inkscape.org/) -->

<svg
   xmlns:dc="http://purl.org/dc/elements/1.1/"
   xmlns:cc="http://creativecommons.org/ns#"
   xmlns:rdf="http://www.w3.org/1999/02/22-rdf-syntax-ns#"
   xmlns:svg="http://www.w3.org/2000/svg"
   xmlns="http://www.w3.org/2000/svg"
   xmlns:xlink="http://www.w3.org/1999/xlink"
   xmlns:sodipodi="http://sodipodi.sourceforge.net/DTD/sodipodi-0.dtd"
   xmlns:inkscape="http://www.inkscape.org/namespaces/inkscape"
   width="210mm"
   height="297mm"
   viewBox="0 0 210 297"
   version="1.1"
   id="svg8"
   sodipodi:docname="Logo1.svg"
   inkscape:version="0.92.4 (5da689c313, 2019-01-14)">
  <defs
     id="defs2">
    <linearGradient
       inkscape:collect="always"
       id="linearGradient6145">
      <stop
         style="stop-color:#000000;stop-opacity:1;"
         offset="0"
         id="stop6141" />
      <stop
         style="stop-color:#000000;stop-opacity:0;"
         offset="1"
         id="stop6143" />
    </linearGradient>
    <linearGradient
       inkscape:collect="always"
       xlink:href="#linearGradient6145"
       id="linearGradient6151"
       x1="39.522785"
       y1="188.54688"
       x2="425.09503"
       y2="225.41745"
       gradientUnits="userSpaceOnUse" />
  </defs>
  <sodipodi:namedview
     id="base"
     pagecolor="#ffffff"
     bordercolor="#666666"
     borderopacity="1.0"
     inkscape:pageopacity="0.0"
     inkscape:pageshadow="2"
     inkscape:zoom="1.979899"
     inkscape:cx="226.6946"
     inkscape:cy="966.5925"
     inkscape:document-units="mm"
     inkscape:current-layer="g6528"
     showgrid="false"
     inkscape:window-width="1600"
     inkscape:window-height="837"
     inkscape:window-x="-8"
     inkscape:window-y="-8"
     inkscape:window-maximized="1" />
  <metadata
     id="metadata5">
    <rdf:RDF>
      <cc:Work
         rdf:about="">
        <dc:format>image/svg+xml</dc:format>
        <dc:type
           rdf:resource="http://purl.org/dc/dcmitype/StillImage" />
        <dc:title></dc:title>
      </cc:Work>
    </rdf:RDF>
  </metadata>
  <g
     inkscape:label="Layer 1"
     inkscape:groupmode="layer"
     id="layer1">
    <flowRoot
       xml:space="preserve"
       id="flowRoot3729"
       style="fill:black;fill-opacity:1;stroke:none;font-family:'DejaVu Sans Mono';font-style:normal;font-weight:normal;font-size:74.66666667px;line-height:1.25;letter-spacing:0px;word-spacing:0px;-inkscape-font-specification:'DejaVu Sans Mono';font-stretch:normal;font-variant:normal;"><flowRegion
         id="flowRegion3731"
         style="-inkscape-font-specification:'DejaVu Sans Mono';font-family:'DejaVu Sans Mono';font-weight:normal;font-style:normal;font-stretch:normal;font-variant:normal;"><rect
           id="rect3733"
           width="442.85715"
           height="128.57143"
           x="7.1428571"
           y="133.94826"
           style="-inkscape-font-specification:'DejaVu Sans Mono';font-family:'DejaVu Sans Mono';font-weight:normal;font-style:normal;font-stretch:normal;font-variant:normal;" /></flowRegion><flowPara
         id="flowPara3735"></flowPara></flowRoot>    <flowRoot
       xml:space="preserve"
       id="flowRoot6153"
       style="font-style:normal;font-variant:normal;font-weight:normal;font-stretch:normal;font-size:32px;line-height:1.25;font-family:Arimo;-inkscape-font-specification:Arimo;letter-spacing:0px;word-spacing:0px;fill:#000000;fill-opacity:1;stroke:none"
       transform="scale(0.26458333)"><flowRegion
         id="flowRegion6155"><rect
           id="rect6157"
           width="316.17773"
           height="14.142134"
           x="45.456863"
           y="216.41286" /></flowRegion><flowPara
         id="flowPara6159">Momo</flowPara></flowRoot>    <text
       xml:space="preserve"
       style="font-style:normal;font-variant:normal;font-weight:normal;font-stretch:normal;font-size:7.76111111px;line-height:1.25;font-family:Arimo;-inkscape-font-specification:Arimo;letter-spacing:0px;word-spacing:0px;fill:#000000;fill-opacity:1;stroke:none;stroke-width:0.26458332;"
       x="40.357697"
       y="66.747299"
       id="text6163"><tspan
         sodipodi:role="line"
         id="tspan6161"
         x="40.357697"
         y="74.373688"
         style="stroke-width:0.26458332;font-size:7.76111111px;" /></text>
    <text
       xml:space="preserve"
       style="font-style:normal;font-variant:normal;font-weight:normal;font-stretch:normal;font-size:8.46666622px;line-height:1.25;font-family:Arimo;-inkscape-font-specification:Arimo;letter-spacing:0px;word-spacing:0px;fill:#000000;fill-opacity:1;stroke:none;stroke-width:0.26458332"
       x="33.275055"
       y="61.802811"
       id="text6167"><tspan
         sodipodi:role="line"
         id="tspan6165"
         x="33.275055"
         y="69.429199"
         style="stroke-width:0.26458332" /></text>
    <text
       xml:space="preserve"
       style="font-style:normal;font-variant:normal;font-weight:normal;font-stretch:normal;font-size:6.3499999px;line-height:1.25;font-family:Arimo;-inkscape-font-specification:Arimo;letter-spacing:0px;word-spacing:0px;fill:#000000;fill-opacity:1;stroke:none;stroke-width:0.26458332"
       x="14.298919"
       y="62.070084"
       id="text6173"><tspan
         sodipodi:role="line"
         id="tspan6171"
         x="14.298919"
         y="67.789871"
         style="stroke-width:0.26458332" /></text>
    <g
       id="g6528">
      <g
         id="g6559">
        <path
           inkscape:connector-curvature="0"
           id="path6447"
           style="font-style:italic;font-variant:normal;font-weight:bold;font-stretch:normal;font-size:74.66666412px;line-height:1.25;font-family:'Palatino Linotype';-inkscape-font-specification:'Palatino Linotype Bold Italic';letter-spacing:0px;word-spacing:0px;fill:#ffa154;fill-opacity:0.98775509;stroke:#000000;stroke-width:0.26499999;stroke-linejoin:bevel;stroke-miterlimit:4;stroke-dasharray:none;stroke-opacity:1"
           d="m 10.589362,54.043899 0.06752,-0.511251 0.09646,-0.08682 c 0.482313,-0.115755 0.771701,-0.202572 0.868164,-0.260451 0.05788,-0.03215 0.09968,-0.06431 0.125401,-0.09646 0.03215,-0.03215 0.06431,-0.08682 0.09646,-0.163986 0.09003,-0.244373 0.218648,-0.852088 0.385851,-1.823146 l 1.225075,-7.196113 c 0.186495,-1.176845 0.279742,-1.913177 0.279742,-2.208996 0,-0.160771 -0.0418,-0.276526 -0.125401,-0.347265 -0.0836,-0.07717 -0.18328,-0.122187 -0.299035,-0.135049 -0.115755,-0.01929 -0.562698,-0.05145 -1.340831,-0.09646 l -0.05788,-0.07717 0.06752,-0.520898 0.09646,-0.08682 c 0.906749,0.04501 1.922823,0.06752 3.04822,0.06752 0.30225,0 1.340832,-0.02251 3.115745,-0.06752 l 0.05788,0.07717 -0.07717,0.530545 -0.08682,0.07717 c -0.720255,0.02572 -1.135044,0.05144 -1.244369,0.07717 -0.102893,0.02572 -0.19614,0.08038 -0.279741,0.163986 -0.0836,0.07717 -0.167202,0.26688 -0.250803,0.56913 -0.0836,0.302249 -0.234726,1.067519 -0.453375,2.29581 l -1.21543,6.906729 c -0.167201,0.881025 -0.266879,1.540187 -0.299034,1.977485 h 1.60128 c 0.810287,0 1.514464,-0.01929 2.112533,-0.05788 0.604499,-0.03859 1.016073,-0.09003 1.234722,-0.154342 0.218649,-0.06431 0.37942,-0.160769 0.482313,-0.289388 0.102894,-0.128615 0.228296,-0.472665 0.376205,-1.03215 0.03215,-0.141478 0.115754,-0.418005 0.250803,-0.82958 l 0.07717,-0.07717 h 0.56913 l 0.06752,0.07717 c -0.01929,0.15434 -0.08039,0.472667 -0.183279,0.954982 -0.0836,0.385851 -0.163987,0.797425 -0.241157,1.234723 -0.09646,0.527329 -0.170417,0.893887 -0.221864,1.099674 l -0.106109,0.08682 c -1.080382,-0.01929 -1.868161,-0.02894 -2.363336,-0.02894 l -3.897091,-0.03859 c -1.485525,0 -2.649508,0.01929 -3.491949,0.05788 z"
           sodipodi:nodetypes="ccccccccsccccccsccccccccccscccccccccccccccc" />
        <path
           inkscape:connector-curvature="0"
           id="path6449"
           style="font-style:italic;font-variant:normal;font-weight:bold;font-stretch:normal;font-size:74.66666412px;line-height:1.25;font-family:'Palatino Linotype';-inkscape-font-specification:'Palatino Linotype Bold Italic';letter-spacing:0px;word-spacing:0px;fill:#ffa154;fill-opacity:0.98775509;stroke:#000000;stroke-width:0.26499999;stroke-linejoin:bevel;stroke-miterlimit:4;stroke-dasharray:none;stroke-opacity:1"
           d="m 22.570026,47.146821 -0.154341,-0.366559 0.01929,-0.135049 c 0.906749,-0.662375 1.659158,-1.163981 2.257226,-1.504818 0.598069,-0.347265 1.077167,-0.520898 1.437294,-0.520898 0.418004,0 0.627006,0.254018 0.627006,0.762055 0,0.244373 -0.03859,0.549838 -0.115755,0.916395 -0.07074,0.366559 -0.212217,0.954982 -0.424434,1.765269 l -0.810287,3.241145 c -0.09646,0.450159 -0.144694,0.768485 -0.144694,0.954979 0,0.270096 0.11254,0.405144 0.337619,0.405144 0.141479,0 0.350481,-0.09003 0.627008,-0.270095 0.276525,-0.186494 0.688099,-0.630222 1.234721,-1.331185 0.424436,-0.540191 0.813502,-1.170413 1.167199,-1.890667 0.353697,-0.726685 0.659162,-1.581988 0.916395,-2.565908 0.135047,-0.540191 0.221863,-1.048228 0.260448,-1.524111 0.662377,-0.03859 1.36334,-0.167203 2.102887,-0.38585 l 0.163986,0.173633 c -0.392282,1.260445 -0.790994,2.697739 -1.196136,4.311882 -0.398713,1.614142 -0.59807,2.665585 -0.59807,3.154328 0,0.237942 0.09325,0.356913 0.279742,0.356913 0.109325,0 0.22508,-0.03537 0.347265,-0.106109 0.122187,-0.07717 0.273312,-0.183279 0.453377,-0.318328 0.199355,-0.141478 0.366556,-0.260449 0.501605,-0.356912 h 0.115755 l 0.212217,0.376206 -0.02894,0.125402 c -1.318324,0.990349 -2.154334,1.575555 -2.508031,1.755618 -0.353697,0.180065 -0.662377,0.270098 -0.926041,0.270098 -0.199357,0 -0.353697,-0.07396 -0.463021,-0.221867 -0.109324,-0.141478 -0.163986,-0.337618 -0.163986,-0.58842 0,-0.385851 0.163986,-1.208999 0.491958,-2.469446 l 0.376206,-1.466231 c -0.617361,1.202567 -1.456586,2.305456 -2.517675,3.308668 -1.054659,1.003211 -1.90353,1.504817 -2.546614,1.504817 -0.276527,0 -0.501606,-0.09646 -0.675239,-0.289388 -0.173633,-0.192925 -0.260449,-0.479098 -0.260449,-0.858517 0,-0.250802 0.02572,-0.517682 0.07717,-0.80064 0.05788,-0.282957 0.202574,-0.858518 0.434082,-1.726681 0.553053,-2.070731 0.829579,-3.389055 0.829579,-3.954971 0,-0.270095 -0.09325,-0.405143 -0.279742,-0.405143 -0.07717,0 -0.170417,0.02251 -0.279742,0.06752 -0.102893,0.04501 -0.450159,0.254016 -1.041796,0.627007 z"
           sodipodi:nodetypes="ccccsscccssccccccccsscccccccscscccsssccssccc" />
        <path
           inkscape:connector-curvature="0"
           id="path6451"
           style="font-style:italic;font-variant:normal;font-weight:bold;font-stretch:normal;font-size:74.66666412px;line-height:1.25;font-family:'Palatino Linotype';-inkscape-font-specification:'Palatino Linotype Bold Italic';letter-spacing:0px;word-spacing:0px;fill:#ffa154;fill-opacity:0.98775509;stroke:#000000;stroke-width:0.26499999;stroke-linejoin:bevel;stroke-miterlimit:4;stroke-dasharray:none;stroke-opacity:1"
           d="m 33.914035,54.420105 -0.192927,-0.279741 c 0.0065,-0.02573 0.08364,-0.273314 0.231511,-0.742762 0.315111,-1.009643 0.623792,-2.218643 0.926041,-3.626998 0.308681,-1.408355 0.463021,-2.350473 0.463021,-2.826356 0,-0.128616 -0.02894,-0.231509 -0.08682,-0.308679 -0.05788,-0.0836 -0.125404,-0.125402 -0.202573,-0.125402 -0.07074,0 -0.167201,0.0418 -0.289388,0.125402 -0.122185,0.07717 -0.485527,0.340834 -1.090028,0.790993 l -0.135046,-0.0097 -0.192926,-0.337619 0.0097,-0.135049 c 0.463021,-0.392282 1.003211,-0.823148 1.620572,-1.292598 0.623793,-0.469452 1.080383,-0.765271 1.36977,-0.887457 0.295818,-0.122187 0.54019,-0.18328 0.733115,-0.18328 0.167203,0 0.29582,0.06109 0.385852,0.18328 0.09646,0.122186 0.144693,0.266879 0.144693,0.43408 0,0.199357 -0.04501,0.5209 -0.135046,0.964629 -0.09003,0.443727 -0.353698,1.623787 -0.790996,3.540178 0.842441,-1.569126 1.790991,-2.813494 2.84565,-3.733104 1.054659,-0.926042 1.909961,-1.389063 2.565908,-1.389063 0.199356,0 0.363342,0.07396 0.491958,0.221864 0.128617,0.141479 0.192926,0.327974 0.192926,0.559485 0,0.186494 -0.02894,0.450158 -0.08682,0.790993 -0.05788,0.340835 -0.167204,0.832794 -0.327972,1.475878 l -0.530545,2.073947 c 0.816718,-1.627003 1.78456,-2.877802 2.903527,-3.752398 1.118967,-0.881025 2.035362,-1.321538 2.749185,-1.321538 0.23151,0 0.405143,0.09003 0.520898,0.270097 0.115755,0.180063 0.173633,0.405143 0.173633,0.675238 0,0.45659 -0.11897,1.13826 -0.35691,2.04501 -0.739547,2.758831 -1.109321,4.376189 -1.109321,4.852072 0,0.218648 0.07395,0.327972 0.221864,0.327972 0.173632,0 0.665591,-0.295819 1.475878,-0.887458 l 0.115755,0.0097 0.212219,0.376205 -0.02894,0.1254 c -1.073951,0.784563 -1.864945,1.321539 -2.372982,1.610928 -0.508037,0.289387 -0.922826,0.434081 -1.244367,0.434081 -0.21865,0 -0.395498,-0.0836 -0.530545,-0.250804 -0.128617,-0.167201 -0.192926,-0.369772 -0.192926,-0.607713 0,-0.289389 0.05466,-0.691317 0.163986,-1.205783 0.115755,-0.514468 0.318327,-1.324755 0.607716,-2.43086 0.263665,-1.022505 0.430866,-1.717036 0.501605,-2.083593 0.07717,-0.372989 0.115755,-0.655946 0.115755,-0.848871 0,-0.302251 -0.102893,-0.453377 -0.308678,-0.453377 -0.154341,0 -0.382637,0.09325 -0.684888,0.279744 -0.302249,0.186495 -0.678453,0.53376 -1.128611,1.041797 -0.450159,0.501606 -0.852086,1.083597 -1.205783,1.745972 -0.347266,0.655947 -0.649516,1.491957 -0.906749,2.508031 -0.257235,1.009643 -0.385852,1.668804 -0.385852,1.977485 -0.463021,0 -1.14469,0.09325 -2.045007,0.279741 l -0.23151,-0.279741 c 0.366557,-0.926042 0.739546,-2.208996 1.118965,-3.848862 0.385851,-1.646296 0.578776,-2.752401 0.578776,-3.318314 0,-0.135049 -0.03215,-0.237943 -0.09646,-0.308682 -0.05788,-0.07074 -0.131835,-0.106108 -0.221864,-0.106108 -0.167202,0 -0.411575,0.102894 -0.733118,0.308681 -0.31511,0.205786 -0.704175,0.610929 -1.167196,1.21543 -0.456591,0.604499 -0.852089,1.22829 -1.186492,1.871374 -0.327972,0.636655 -0.594852,1.392279 -0.80064,2.266873 -0.199356,0.868163 -0.30868,1.475878 -0.327972,1.823143 -0.418007,0 -1.122185,0.125402 -2.112534,0.376206 z"
           sodipodi:nodetypes="ccccscscccccccscscccscsscccscscsscccccscscccssscccccccscsccccccc" />
        <path
           inkscape:connector-curvature="0"
           id="path6453"
           style="font-style:italic;font-variant:normal;font-weight:bold;font-stretch:normal;font-size:74.66666412px;line-height:1.25;font-family:'Palatino Linotype';-inkscape-font-specification:'Palatino Linotype Bold Italic';letter-spacing:0px;word-spacing:0px;fill:#ffa154;fill-opacity:0.98775509;stroke:#000000;stroke-width:0.26499999;stroke-linejoin:bevel;stroke-miterlimit:4;stroke-dasharray:none;stroke-opacity:1"
           d="m 53.167983,41.658095 c 0,-0.398713 0.125401,-0.739548 0.376203,-1.022506 0.250804,-0.282956 0.572347,-0.424434 0.964629,-0.424434 0.334403,0 0.598068,0.102893 0.790993,0.308679 0.192925,0.199356 0.289388,0.459806 0.289388,0.781349 0,0.392281 -0.115755,0.749193 -0.347266,1.070734 -0.23151,0.315112 -0.556267,0.472668 -0.974272,0.472668 -0.392282,0 -0.675239,-0.11254 -0.848871,-0.337619 -0.167203,-0.225079 -0.250804,-0.508036 -0.250804,-0.848871 z m -3.028929,5.845638 -0.192923,-0.337622 0.01929,-0.125399 c 1.131829,-0.881027 2.012856,-1.50482 2.643079,-1.871377 0.636653,-0.366559 1.131827,-0.549838 1.485524,-0.549838 0.160771,0 0.299035,0.07074 0.41479,0.212219 0.115755,0.135047 0.173633,0.30868 0.173633,0.520899 0,0.282956 -0.05145,0.639867 -0.154342,1.070734 -0.09646,0.430867 -0.305464,1.247585 -0.627007,2.450153 -0.559483,2.070731 -0.839224,3.270084 -0.839224,3.598058 0,0.09003 0.02572,0.170416 0.07717,0.241155 0.05788,0.06431 0.122189,0.09646 0.192927,0.09646 0.192925,0 0.707392,-0.299035 1.543401,-0.897104 l 0.115756,0.0097 0.212219,0.38585 -0.03859,0.125402 c -0.450158,0.321543 -0.987133,0.691316 -1.610926,1.109321 -0.623792,0.411573 -1.070736,0.668807 -1.340831,0.771702 -0.263665,0.102893 -0.495175,0.15434 -0.694532,0.15434 -0.250802,0 -0.437296,-0.09325 -0.559482,-0.279742 -0.122187,-0.186494 -0.18328,-0.427651 -0.18328,-0.723471 0,-0.295818 0.03537,-0.630221 0.106109,-1.00321 0.07717,-0.379419 0.237941,-1.03215 0.482314,-1.958192 0.540191,-2.064302 0.810287,-3.279732 0.810287,-3.646289 0,-0.180065 -0.07395,-0.270097 -0.221864,-0.270097 -0.244373,0 -0.803856,0.308681 -1.678451,0.926042 z"
           sodipodi:nodetypes="scscscscsccccscsccscsccccccscsccsscc" />
        <path
           inkscape:connector-curvature="0"
           id="path6455"
           style="font-style:italic;font-variant:normal;font-weight:bold;font-stretch:normal;font-size:74.66666412px;line-height:1.25;font-family:'Palatino Linotype';-inkscape-font-specification:'Palatino Linotype Bold Italic';letter-spacing:0px;word-spacing:0px;fill:#ffa154;fill-opacity:0.98775509;stroke:#000000;stroke-width:0.26499999;stroke-linejoin:bevel;stroke-miterlimit:4;stroke-dasharray:none;stroke-opacity:1"
           d="m 56.823919,54.410459 -0.250804,-0.241158 c 0.199357,-0.501605 0.456591,-1.337614 0.771702,-2.508027 0.315112,-1.176846 0.543407,-2.19935 0.684885,-3.067513 0.147909,-0.868165 0.221864,-1.421219 0.221864,-1.65916 0,-0.218648 -0.07395,-0.327972 -0.221864,-0.327972 -0.199357,0 -0.662378,0.270095 -1.389063,0.810286 l -0.135048,-0.0097 -0.192924,-0.337619 0.0097,-0.125402 c 0.334405,-0.282956 0.723472,-0.594852 1.167199,-0.935688 0.443729,-0.347266 0.845657,-0.633439 1.205783,-0.858518 0.360128,-0.23151 0.630224,-0.376203 0.810287,-0.43408 0.180065,-0.06431 0.344052,-0.09646 0.491961,-0.09646 0.353697,0 0.530545,0.209003 0.530545,0.62701 0,0.302249 -0.05788,0.742762 -0.173633,1.321538 -0.115755,0.572345 -0.356912,1.549833 -0.723471,2.932464 0.726685,-1.344046 1.639865,-2.491951 2.73954,-3.443716 1.106105,-0.951766 2.003207,-1.427649 2.691308,-1.427649 0.546622,0 0.819933,0.305465 0.819933,0.916395 0,0.334405 -0.07395,0.813504 -0.221864,1.437296 -0.147909,0.617361 -0.385851,1.527325 -0.713825,2.729891 -0.218648,0.797426 -0.369773,1.421218 -0.453374,1.871377 -0.07717,0.443727 -0.115755,0.7299 -0.115755,0.858517 0,0.237942 0.07717,0.356913 0.23151,0.356913 0.250804,0 0.723472,-0.263664 1.418003,-0.790993 l 0.115755,0.0097 0.212217,0.376206 -0.02894,0.125402 c -1.099673,0.829578 -1.887452,1.360122 -2.363335,1.591632 -0.475881,0.237942 -0.884239,0.356913 -1.225074,0.356913 -0.270095,0 -0.453375,-0.106109 -0.549838,-0.318326 -0.09003,-0.205787 -0.135049,-0.421221 -0.135049,-0.6463 0,-0.520899 0.22508,-1.581989 0.675241,-3.183268 0.495175,-1.736328 0.742762,-2.845649 0.742762,-3.327964 0,-0.263664 -0.125402,-0.395496 -0.376206,-0.395496 -0.115755,0 -0.276526,0.05145 -0.482312,0.154342 -0.199356,0.102893 -0.495175,0.35691 -0.887457,0.762053 -0.385851,0.398713 -0.742762,0.852088 -1.070734,1.360125 -0.321543,0.508037 -0.604501,1.057873 -0.848874,1.64951 -0.237941,0.591638 -0.437297,1.228292 -0.598066,1.909961 -0.160772,0.675239 -0.26045,1.212215 -0.299035,1.610926 -0.816718,0.06431 -1.511249,0.186493 -2.083594,0.366559 z"
           sodipodi:nodetypes="ccccsscccccccsscccsscccsscccccscscsscccccccc" />
        <path
           inkscape:connector-curvature="0"
           id="path6457"
           style="font-style:italic;font-variant:normal;font-weight:bold;font-stretch:normal;font-size:74.66666412px;line-height:1.25;font-family:'Palatino Linotype';-inkscape-font-specification:'Palatino Linotype Bold Italic';letter-spacing:0px;word-spacing:0px;fill:#ffa154;fill-opacity:0.98775509;stroke:#000000;stroke-width:0.26499999;stroke-linejoin:bevel;stroke-miterlimit:4;stroke-dasharray:none;stroke-opacity:1"
           d="m 67.946065,51.352592 c 0,-0.598069 0.09968,-1.347263 0.299032,-2.24758 0.205788,-0.90675 0.553054,-1.662374 1.041797,-2.266873 0.495177,-0.61093 1.16077,-1.131828 1.996779,-1.562695 0.836009,-0.437298 1.697742,-0.655947 2.585199,-0.655947 0.913181,0 1.655944,0.26045 2.228289,0.781349 0.572345,0.520897 0.858517,1.302244 0.858517,2.344041 0,0.945335 -0.176848,1.913178 -0.530545,2.903527 -0.353697,0.98392 -0.826363,1.704175 -1.418,2.160765 -0.585207,0.45659 -1.202568,0.848871 -1.852083,1.176843 -0.643086,0.321543 -1.376202,0.482314 -2.199349,0.482314 -0.784564,0 -1.395495,-0.151125 -1.832793,-0.453374 -0.437296,-0.302249 -0.742761,-0.691316 -0.916395,-1.167199 -0.173632,-0.475883 -0.260448,-0.974273 -0.260448,-1.495171 z m 2.276518,-0.07717 c 0,0.784564 0.14791,1.353694 0.44373,1.707391 0.295818,0.353697 0.720254,0.530545 1.273307,0.530545 0.379419,0 0.717038,-0.106109 1.012857,-0.318328 0.302249,-0.212217 0.578776,-0.591637 0.82958,-1.138259 0.257233,-0.553053 0.463019,-1.237939 0.61736,-2.054656 0.160771,-0.816716 0.241157,-1.559478 0.241157,-2.228286 0,-0.842441 -0.163987,-1.430864 -0.491961,-1.765269 -0.327972,-0.334403 -0.726684,-0.501605 -1.196136,-0.501605 -0.495175,0 -0.932472,0.18971 -1.311892,0.56913 -0.37299,0.379419 -0.704179,1.122182 -0.993566,2.228289 -0.282957,1.099673 -0.424436,2.090023 -0.424436,2.971048 z"
           sodipodi:nodetypes="scccscscccsccsscscccsssccs" />
        <path
           inkscape:connector-curvature="0"
           id="path6459"
           style="font-style:italic;font-variant:normal;font-weight:bold;font-stretch:normal;font-size:74.66666412px;line-height:1.25;font-family:'Palatino Linotype';-inkscape-font-specification:'Palatino Linotype Bold Italic';letter-spacing:0px;word-spacing:0px;fill:#ffa154;fill-opacity:0.98775509;stroke:#000000;stroke-width:0.26499999;stroke-linejoin:bevel;stroke-miterlimit:4;stroke-dasharray:none;stroke-opacity:1"
           d="m 77.625753,51.33616 h 0.434083 l 0.08682,0.08682 0.02894,0.858517 c 0.250802,0.308681 0.598068,0.578776 1.041797,0.810286 0.450159,0.225079 0.922825,0.337619 1.418,0.337619 0.347266,0 0.662378,-0.05145 0.945335,-0.154339 0.289387,-0.109324 0.504821,-0.292604 0.646301,-0.549839 0.141478,-0.257233 0.212217,-0.520897 0.212217,-0.790993 0,-0.244373 -0.06109,-0.45659 -0.18328,-0.636653 -0.115755,-0.180063 -0.273311,-0.321542 -0.472667,-0.424437 -0.199355,-0.109324 -0.520897,-0.212217 -0.964626,-0.308679 -0.649515,-0.147909 -1.109321,-0.260448 -1.379416,-0.337619 -0.263665,-0.0836 -0.501606,-0.209003 -0.713825,-0.376205 -0.205785,-0.167201 -0.379418,-0.398712 -0.520898,-0.694532 -0.135047,-0.295818 -0.20257,-0.61736 -0.20257,-0.964625 0,-0.347266 0.06431,-0.678455 0.192923,-0.993566 0.135049,-0.321543 0.321544,-0.594855 0.559485,-0.819934 0.244371,-0.23151 0.636652,-0.514467 1.176843,-0.84887 0.540191,-0.334403 0.954981,-0.546621 1.24437,-0.636654 0.289387,-0.09646 0.643084,-0.144695 1.06109,-0.144695 0.868163,0 1.668803,0.205788 2.40192,0.617363 -0.128618,0.617361 -0.241158,1.369769 -0.337619,2.257226 l -0.08682,0.07717 h -0.424434 l -0.08682,-0.07717 -0.106108,-0.887457 c -0.289387,-0.282958 -0.636653,-0.501607 -1.041797,-0.655947 -0.398713,-0.154341 -0.784564,-0.231511 -1.157552,-0.231511 -0.450159,0 -0.826363,0.131833 -1.128612,0.395499 -0.302251,0.257233 -0.453377,0.591637 -0.453377,1.00321 0,0.443729 0.151126,0.765272 0.453377,0.964629 0.302249,0.192925 0.887456,0.372988 1.755619,0.540189 0.604501,0.115755 1.051444,0.244373 1.340831,0.385853 0.295819,0.135047 0.540191,0.363341 0.733116,0.684884 0.192925,0.321541 0.289388,0.69453 0.289388,1.118965 0,0.443729 -0.09325,0.839227 -0.279742,1.186493 -0.186494,0.340834 -0.565913,0.73633 -1.138258,1.186489 -0.572345,0.443729 -1.073951,0.755625 -1.504818,0.935688 -0.430867,0.180063 -0.99035,0.270095 -1.67845,0.270095 -0.347266,0 -0.700963,-0.02572 -1.061091,-0.07717 -0.360126,-0.05145 -0.868162,-0.205787 -1.524108,-0.463021 l -0.03859,-0.09647 c 0.06431,-0.218648 0.138261,-0.61736 0.221864,-1.196136 0.09003,-0.578776 0.141479,-0.999996 0.154342,-1.26366 z"
           sodipodi:nodetypes="cccccsccsccccccsccscscccccccscsccccscccssccccc" />
        <path
           inkscape:connector-curvature="0"
           id="path6461"
           style="font-style:italic;font-variant:normal;font-weight:bold;font-stretch:normal;font-size:74.66666412px;line-height:1.25;font-family:'Palatino Linotype';-inkscape-font-specification:'Palatino Linotype Bold Italic';letter-spacing:0px;word-spacing:0px;fill:#ffa154;fill-opacity:0.98775509;stroke:#000000;stroke-width:0.26499999;stroke-linejoin:bevel;stroke-miterlimit:4;stroke-dasharray:none;stroke-opacity:1"
           d="m 88.930827,41.658095 c 0,-0.398713 0.125401,-0.739548 0.376203,-1.022506 0.250804,-0.282956 0.572346,-0.424434 0.964626,-0.424434 0.334405,0 0.598071,0.102893 0.790996,0.308679 0.192925,0.199356 0.289388,0.459806 0.289388,0.781349 0,0.392281 -0.115755,0.749193 -0.347266,1.070734 -0.23151,0.315112 -0.556267,0.472668 -0.974272,0.472668 -0.392282,0 -0.67524,-0.11254 -0.848874,-0.337619 -0.167201,-0.225079 -0.250801,-0.508036 -0.250801,-0.848871 z m -3.028929,5.845638 -0.192926,-0.337622 0.01929,-0.125399 c 1.131829,-0.881027 2.012855,-1.50482 2.643077,-1.871377 0.636654,-0.366559 1.131829,-0.549838 1.485526,-0.549838 0.16077,0 0.299033,0.07074 0.414788,0.212219 0.115755,0.135047 0.173633,0.30868 0.173633,0.520899 0,0.282956 -0.05145,0.639867 -0.15434,1.070734 -0.09646,0.430867 -0.305464,1.247585 -0.627007,2.450153 -0.559484,2.070731 -0.839226,3.270084 -0.839226,3.598058 0,0.09003 0.02572,0.170416 0.07717,0.241155 0.05788,0.06431 0.122189,0.09646 0.192926,0.09646 0.192925,0 0.707393,-0.299035 1.543402,-0.897104 l 0.115755,0.0097 0.212217,0.38585 -0.03858,0.125402 c -0.450159,0.321543 -0.987134,0.691316 -1.610926,1.109321 -0.623793,0.411573 -1.070737,0.668807 -1.340832,0.771702 -0.263664,0.102893 -0.495174,0.15434 -0.694531,0.15434 -0.250802,0 -0.437296,-0.09325 -0.559483,-0.279742 -0.122186,-0.186494 -0.183279,-0.427651 -0.183279,-0.723471 0,-0.295818 0.03537,-0.630221 0.106108,-1.00321 0.07717,-0.379419 0.237941,-1.03215 0.482314,-1.958192 0.540191,-2.064302 0.810287,-3.279732 0.810287,-3.646289 0,-0.180065 -0.07395,-0.270097 -0.221864,-0.270097 -0.244373,0 -0.803856,0.308681 -1.67845,0.926042 z"
           sodipodi:nodetypes="scscscscsccccscsccscsccccccsssccsscc" />
        <path
           inkscape:connector-curvature="0"
           id="path6463"
           style="font-style:italic;font-variant:normal;font-weight:bold;font-stretch:normal;font-size:74.66666412px;line-height:1.25;font-family:'Palatino Linotype';-inkscape-font-specification:'Palatino Linotype Bold Italic';letter-spacing:0px;word-spacing:0px;fill:#ffa154;fill-opacity:0.98775509;stroke:#000000;stroke-width:0.26499999;stroke-linejoin:bevel;stroke-miterlimit:4;stroke-dasharray:none;stroke-opacity:1"
           d="m 94.256942,46.037499 h -2.016069 l -0.06753,-0.09646 0.05788,-0.337622 0.115755,-0.115755 c 0.533762,-0.122185 1.257233,-0.337617 2.170412,-0.646298 0.01286,-0.147911 0.05788,-0.459807 0.135048,-0.935688 0.128616,-0.713825 0.192924,-1.311893 0.192924,-1.794206 0.385851,-0.0836 0.967842,-0.266881 1.745975,-0.549838 0.353697,-0.128616 0.572346,-0.205786 0.655947,-0.231511 l 0.221863,0.241157 c -0.205787,0.630223 -0.498391,1.774914 -0.87781,3.434072 h 0.993566 c 0.771709,0 1.315106,-0.02572 1.630213,-0.07717 l 0.10611,0.15434 c -0.09,0.29582 -0.16399,0.6045 -0.22186,0.926041 l -0.1254,0.09647 c -0.475887,-0.04502 -0.996784,-0.06753 -1.562696,-0.06753 h -1.03215 c -0.109324,0.540191 -0.237942,1.154337 -0.385853,1.842437 l -0.405143,1.890668 -0.299032,1.466233 c -0.07717,0.411573 -0.125402,0.678453 -0.144695,0.80064 -0.01286,0.122186 -0.01929,0.23151 -0.01929,0.327972 0,0.167203 0.0418,0.292605 0.125402,0.376206 0.09003,0.0836 0.199358,0.125402 0.327975,0.125402 0.115755,0 0.241156,-0.02572 0.376203,-0.07717 0.135049,-0.05788 0.318328,-0.157558 0.549839,-0.299035 0.231511,-0.147909 0.633438,-0.42122 1.205783,-0.819933 l 0.135046,0.0097 0.192927,0.376206 -0.0193,0.115755 c -1.479093,1.080382 -2.453365,1.733113 -2.922817,1.958192 -0.463021,0.225079 -0.83601,0.337619 -1.118968,0.337619 -0.372988,0 -0.655945,-0.115755 -0.84887,-0.347266 -0.186495,-0.231511 -0.279742,-0.53376 -0.279742,-0.906748 0,-0.237941 0.03215,-0.533761 0.09646,-0.887458 0.06431,-0.353697 0.244371,-1.202568 0.540192,-2.546614 0.501606,-2.315104 0.758839,-3.562688 0.7717,-3.742751 z"
           sodipodi:nodetypes="ccccccccccccsccccscccccscscccccccscssccc" />
        <path
           inkscape:connector-curvature="0"
           id="path6465"
           style="font-style:italic;font-variant:normal;font-weight:bold;font-stretch:normal;font-size:74.66666412px;line-height:1.25;font-family:'Palatino Linotype';-inkscape-font-specification:'Palatino Linotype Bold Italic';letter-spacing:0px;word-spacing:0px;fill:#ffa154;fill-opacity:0.98775509;stroke:#000000;stroke-width:0.26499999;stroke-linejoin:bevel;stroke-miterlimit:4;stroke-dasharray:none;stroke-opacity:1"
           d="m 99.359816,57.632311 1.215424,-0.781346 0.28939,0.115755 c -0.0129,0.135047 -0.0193,0.260448 -0.0193,0.376203 0,0.353697 -0.16773,0.895397 0.0638,1.152632 0.23151,0.257233 0.44891,0.480344 0.84119,0.480344 0.21865,0 0.81206,-0.378961 1.02428,-0.475424 0.21222,-0.09003 0.42444,-0.247586 0.63665,-0.472665 0.21865,-0.21865 0.43087,-0.540193 0.63666,-0.964628 0.20579,-0.418005 0.43087,-1.025719 0.67524,-1.823144 0.24437,-0.797426 0.45337,-1.559481 0.627,-2.286166 L 105.8807,50.8124 c -0.86817,1.260447 -1.65916,2.180059 -2.37298,2.758835 -0.71383,0.578776 -1.26367,0.868164 -1.64952,0.868164 -0.25723,0 -0.4823,-0.14791 -0.67523,-0.44373 -0.19293,-0.295819 -0.28939,-0.794209 -0.28939,-1.495171 0,-0.360128 0.12219,-1.63022 0.36656,-3.810276 0.0515,-0.823149 0.0772,-1.289385 0.0772,-1.398709 0,-0.340834 -0.0257,-0.562698 -0.0772,-0.665591 -0.0515,-0.109324 -0.14472,-0.163986 -0.27975,-0.163986 -0.20578,0 -0.67845,0.270096 -1.417997,0.810287 l -0.144687,-0.01929 -0.18328,-0.318328 0.01,-0.154339 1.147894,-0.887458 c 0.56592,-0.443727 1.03859,-0.765269 1.418,-0.964625 0.37942,-0.199357 0.69775,-0.299035 0.95498,-0.299035 0.25081,0 0.44373,0.106109 0.57878,0.318328 0.13505,0.205786 0.20257,0.50482 0.20257,0.897101 0,0.231511 -0.0515,0.839226 -0.15434,1.823146 l -0.19292,1.726682 c -0.12219,1.125398 -0.18328,1.929253 -0.18328,2.411566 0,0.418005 0.0418,0.672023 0.1254,0.762055 0.09,0.0836 0.16399,0.125402 0.22186,0.125402 0.15434,0 0.39228,-0.141479 0.71383,-0.424437 0.32154,-0.282957 0.71061,-0.794209 1.1672,-1.533755 0.46302,-0.739547 0.86173,-1.627004 1.19613,-2.662369 0.33441,-1.035366 0.5627,-2.006424 0.68489,-2.913174 l 2.20899,-0.482314 0.22187,0.183279 c -0.045,0.09003 -0.19934,0.565916 -0.46302,1.42765 -0.26367,0.861732 -0.55949,1.929252 -0.88746,3.202559 -0.41801,1.633435 -0.78135,2.926034 -1.09003,3.877799 -0.30225,0.945335 -0.65594,1.787776 -1.06109,2.527321 -0.40514,0.739547 -0.87138,1.385848 -1.39871,1.938901 -0.52733,0.553053 -1.06752,0.977489 -1.62057,1.273307 -0.55305,0.302249 -1.43684,0.973091 -1.98989,0.973091 -0.55948,0 -0.84637,-0.424961 -1.238657,-0.707918 -0.392277,-0.276525 -0.446677,-0.943626 -0.446677,-1.528833 z"
           sodipodi:nodetypes="cccscscccccccscscscsccccccscsccscsccccccccccccsccc" />
        <path
           inkscape:connector-curvature="0"
           id="path6408"
           style="font-style:italic;font-variant:normal;font-weight:normal;font-stretch:normal;font-size:4.24466085px;line-height:1.25;font-family:Verdana;-inkscape-font-specification:'Verdana Italic';letter-spacing:0px;word-spacing:0px;fill:#000000;fill-opacity:1;stroke:none;stroke-width:0.2652913"
           d="m 31.368662,59.397394 h -0.415627 l 0.610972,-2.614827 -1.257272,1.767334 h -0.245219 l -0.436409,-1.847949 -0.627596,2.695442 H 28.6089 l 0.714878,-3.077848 h 0.565253 l 0.417704,1.713591 1.205318,-1.713591 h 0.571487 z"
           sodipodi:nodetypes="cccccccccccccc" />
        <path
           inkscape:connector-curvature="0"
           id="path6410"
           style="font-style:italic;font-variant:normal;font-weight:normal;font-stretch:normal;font-size:4.24466085px;line-height:1.25;font-family:Verdana;-inkscape-font-specification:'Verdana Italic';letter-spacing:0px;word-spacing:0px;fill:#000000;fill-opacity:1;stroke:none;stroke-width:0.2652913"
           d="m 34.452614,57.90498 c 0,0.206705 -0.03186,0.405143 -0.09559,0.595312 -0.06373,0.190169 -0.153786,0.355533 -0.270158,0.496093 -0.120532,0.146073 -0.259767,0.26045 -0.417705,0.343132 -0.157938,0.08131 -0.342199,0.121957 -0.552783,0.121957 -0.2757,0 -0.491133,-0.07786 -0.6463,-0.233578 -0.153783,-0.157097 -0.230674,-0.373449 -0.230674,-0.649057 0,-0.206705 0.03117,-0.403765 0.09352,-0.591178 0.06373,-0.187413 0.155171,-0.354155 0.274313,-0.500227 0.11499,-0.14056 0.255611,-0.25287 0.421862,-0.336931 0.167636,-0.08406 0.350512,-0.12609 0.548627,-0.12609 0.267387,0 0.480049,0.07579 0.637987,0.227376 0.157939,0.151584 0.236908,0.369314 0.236908,0.653191 z m -0.635909,0.872297 c 0.07481,-0.110243 0.131615,-0.237711 0.170406,-0.382405 0.04018,-0.144695 0.06027,-0.297657 0.06027,-0.458886 0,-0.192926 -0.04641,-0.338998 -0.139234,-0.438217 -0.09282,-0.09922 -0.223747,-0.148829 -0.392769,-0.148829 -0.134386,0 -0.254918,0.03238 -0.361595,0.09715 -0.106677,0.06339 -0.198808,0.150892 -0.276391,0.262516 -0.07481,0.108865 -0.132308,0.236333 -0.172485,0.382406 -0.04018,0.146071 -0.06027,0.297655 -0.06027,0.454752 0,0.190169 0.04641,0.336241 0.139234,0.438216 0.09282,0.101975 0.224439,0.152962 0.394846,0.152962 0.133001,0 0.253533,-0.0317 0.361596,-0.09509 0.108063,-0.06339 0.200193,-0.151581 0.276392,-0.264583 z"
           sodipodi:nodetypes="ccccscscccscccccscscccscsccc" />
        <path
           inkscape:connector-curvature="0"
           id="path6412"
           style="font-style:italic;font-variant:normal;font-weight:normal;font-stretch:normal;font-size:4.24466085px;line-height:1.25;font-family:Verdana;-inkscape-font-specification:'Verdana Italic';letter-spacing:0px;word-spacing:0px;fill:#000000;fill-opacity:1;stroke:none;stroke-width:0.2652913"
           d="m 37.114703,57.818163 c 0,0.22462 -0.03533,0.438905 -0.105985,0.642855 -0.07066,0.203949 -0.164865,0.378271 -0.282626,0.522965 -0.123303,0.151585 -0.261152,0.269407 -0.413549,0.353466 -0.152396,0.08268 -0.320725,0.124025 -0.504986,0.124025 -0.123303,0 -0.238985,-0.01654 -0.347048,-0.04961 -0.106678,-0.03169 -0.202272,-0.07441 -0.286783,-0.128158 l -0.05195,0.113688 h -0.365752 l 0.74605,-3.21634 h 0.390689 l -0.266001,1.149283 c 0.128845,-0.08957 0.254918,-0.162608 0.378221,-0.219107 0.123303,-0.05788 0.26046,-0.08682 0.411471,-0.08682 0.225824,0 0.398309,0.06959 0.517455,0.208772 0.120531,0.139183 0.180797,0.334175 0.180797,0.584978 z m -0.642143,0.928108 c 0.07758,-0.119889 0.135772,-0.251491 0.174563,-0.394807 0.03879,-0.143316 0.05819,-0.296278 0.05819,-0.458887 0,-0.163987 -0.03602,-0.290077 -0.108063,-0.378271 -0.07204,-0.08957 -0.187032,-0.134359 -0.34497,-0.134359 -0.114991,0 -0.234137,0.02825 -0.357439,0.08475 -0.123303,0.0565 -0.238293,0.120579 -0.344971,0.192236 l -0.305485,1.32085 c 0.08867,0.04685 0.174563,0.08337 0.257688,0.109554 0.08451,0.02619 0.184955,0.03928 0.30133,0.03928 0.144083,0 0.272928,-0.03514 0.386533,-0.10542 0.113605,-0.07028 0.207813,-0.16192 0.282626,-0.274919 z"
           sodipodi:nodetypes="ccccsccccccccscccccscsccccsccc" />
        <path
           inkscape:connector-curvature="0"
           id="path6414"
           style="font-style:italic;font-variant:normal;font-weight:normal;font-stretch:normal;font-size:4.24466085px;line-height:1.25;font-family:Verdana;-inkscape-font-specification:'Verdana Italic';letter-spacing:0px;word-spacing:0px;fill:#000000;fill-opacity:1;stroke:none;stroke-width:0.2652913"
           d="m 38.546537,56.298876 -0.09352,0.403076 h -0.440565 l 0.09352,-0.403076 z m -0.207812,0.789615 -0.536159,2.308903 h -0.39069 l 0.536159,-2.308903 z"
           sodipodi:nodetypes="cccccccccc" />
        <path
           inkscape:connector-curvature="0"
           id="path6416"
           style="font-style:italic;font-variant:normal;font-weight:normal;font-stretch:normal;font-size:4.24466085px;line-height:1.25;font-family:Verdana;-inkscape-font-specification:'Verdana Italic';letter-spacing:0px;word-spacing:0px;fill:#000000;fill-opacity:1;stroke:none;stroke-width:0.2652913"
           d="m 39.722762,56.181054 -0.748128,3.21634 h -0.390689 l 0.748128,-3.21634 z"
           sodipodi:nodetypes="ccccc" />
        <path
           inkscape:connector-curvature="0"
           id="path6418"
           style="font-style:italic;font-variant:normal;font-weight:normal;font-stretch:normal;font-size:4.24466085px;line-height:1.25;font-family:Verdana;-inkscape-font-specification:'Verdana Italic';letter-spacing:0px;word-spacing:0px;fill:#000000;fill-opacity:1;stroke:none;stroke-width:0.2652913"
           d="m 41.63049,57.991795 c 0.0069,-0.03997 0.01178,-0.07373 0.01455,-0.101285 0.0027,-0.02756 0.0041,-0.05788 0.0041,-0.09095 0,-0.147451 -0.04087,-0.262517 -0.12261,-0.3452 -0.08036,-0.08268 -0.209892,-0.124023 -0.388612,-0.124023 -0.196729,0 -0.371292,0.06063 -0.523689,0.181901 -0.152396,0.121268 -0.25561,0.28112 -0.309642,0.479557 z m -0.781379,1.459343 c -0.321418,0 -0.573565,-0.0751 -0.75644,-0.225309 -0.182876,-0.150207 -0.274314,-0.370004 -0.274314,-0.659391 0,-0.423058 0.134386,-0.785482 0.403158,-1.087273 0.268771,-0.303168 0.601273,-0.454752 0.997504,-0.454752 0.26323,0 0.464809,0.06546 0.604738,0.19637 0.139927,0.129535 0.209891,0.312126 0.209891,0.547771 0,0.04134 -0.0062,0.106797 -0.0187,0.19637 -0.01108,0.08957 -0.02978,0.193615 -0.05611,0.312126 h -1.710304 c -0.0083,0.03997 -0.01455,0.07924 -0.0187,0.117822 -0.0027,0.03859 -0.0041,0.07442 -0.0041,0.107487 0,0.194303 0.05957,0.347265 0.17872,0.458886 0.119146,0.110243 0.288167,0.165365 0.507064,0.165365 0.152397,0 0.308949,-0.02963 0.469658,-0.08888 0.162095,-0.05925 0.297866,-0.126088 0.407315,-0.200504 h 0.02286 l -0.08521,0.419612 c -0.06927,0.02481 -0.131615,0.04755 -0.187032,0.06822 -0.05541,0.02067 -0.12607,0.04134 -0.21197,0.06201 -0.0859,0.02067 -0.162094,0.03652 -0.228595,0.04754 -0.0665,0.01103 -0.149625,0.01654 -0.249375,0.01654 z"
           sodipodi:nodetypes="ccscsccccsscscsccccscsccccccccc" />
        <path
           inkscape:connector-curvature="0"
           id="path6420"
           style="font-style:italic;font-variant:normal;font-weight:normal;font-stretch:normal;font-size:4.24466085px;line-height:1.25;font-family:Verdana;-inkscape-font-specification:'Verdana Italic';letter-spacing:0px;word-spacing:0px;fill:#000000;fill-opacity:1;stroke:none;stroke-width:0.2652913"
           d="M 45.772211,59.397394 H 43.81253 l 0.714878,-3.077848 h 0.415627 l -0.63383,2.728516 h 1.544053 z"
           sodipodi:nodetypes="ccccccc" />
        <path
           inkscape:connector-curvature="0"
           id="path6422"
           style="font-style:italic;font-variant:normal;font-weight:normal;font-stretch:normal;font-size:4.24466085px;line-height:1.25;font-family:Verdana;-inkscape-font-specification:'Verdana Italic';letter-spacing:0px;word-spacing:0px;fill:#000000;fill-opacity:1;stroke:none;stroke-width:0.2652913"
           d="m 47.291327,56.298876 -0.09352,0.403076 h -0.440565 l 0.09352,-0.403076 z m -0.207813,0.789615 -0.536159,2.308903 h -0.390689 l 0.536159,-2.308903 z"
           sodipodi:nodetypes="cccccccccc" />
        <path
           inkscape:connector-curvature="0"
           id="path6424"
           style="font-style:italic;font-variant:normal;font-weight:normal;font-stretch:normal;font-size:4.24466085px;line-height:1.25;font-family:Verdana;-inkscape-font-specification:'Verdana Italic';letter-spacing:0px;word-spacing:0px;fill:#000000;fill-opacity:1;stroke:none;stroke-width:0.2652913"
           d="m 49.737291,57.088491 -0.471736,2.052588 c -0.09144,0.391363 -0.241757,0.677306 -0.450956,0.857829 -0.207813,0.181901 -0.497367,0.272851 -0.86866,0.272851 -0.119146,0 -0.239678,-0.009 -0.361595,-0.02687 -0.120531,-0.01791 -0.231365,-0.04203 -0.332501,-0.07235 l 0.08936,-0.38654 h 0.02079 c 0.07758,0.03445 0.182183,0.06752 0.313798,0.09921 0.131615,0.03169 0.255611,0.04754 0.371986,0.04754 0.131615,0 0.243142,-0.01722 0.33458,-0.05167 0.09282,-0.03307 0.169021,-0.07855 0.228594,-0.136426 0.05819,-0.05788 0.105291,-0.125404 0.141313,-0.202571 0.03741,-0.07579 0.0665,-0.161231 0.08728,-0.256315 l 0.0478,-0.202572 c -0.139929,0.09371 -0.263232,0.163987 -0.369909,0.21084 -0.106677,0.04548 -0.243141,0.06822 -0.409392,0.06822 -0.225824,0 -0.402465,-0.06821 -0.529924,-0.204638 -0.127459,-0.137804 -0.191189,-0.331418 -0.191189,-0.580843 0,-0.199815 0.03256,-0.39343 0.09767,-0.580843 0.0665,-0.188791 0.158631,-0.356223 0.276392,-0.502295 0.11499,-0.141938 0.252839,-0.255626 0.413548,-0.341064 0.162095,-0.08544 0.335273,-0.128158 0.519534,-0.128158 0.133,0 0.251454,0.01516 0.355361,0.04548 0.105292,0.03032 0.19673,0.06959 0.274313,0.117823 l 0.0478,-0.09923 z m -0.486283,0.41548 c -0.08867,-0.04548 -0.180105,-0.08062 -0.274314,-0.10542 -0.09282,-0.02618 -0.187032,-0.03927 -0.282626,-0.03927 -0.135772,0 -0.259767,0.03101 -0.371986,0.09302 -0.110834,0.06063 -0.206428,0.145383 -0.286782,0.254248 -0.0762,0.101975 -0.135772,0.225309 -0.17872,0.370003 -0.04157,0.143316 -0.06235,0.286632 -0.06235,0.429948 0,0.162608 0.03741,0.288699 0.11222,0.378272 0.07481,0.08819 0.194652,0.132291 0.359517,0.132291 0.114991,0 0.231366,-0.02412 0.349127,-0.07235 0.117761,-0.04823 0.233443,-0.108867 0.347048,-0.181901 z"
           sodipodi:nodetypes="cccsccccssccccccscscccsccccccscccscsscc" />
        <path
           inkscape:connector-curvature="0"
           id="path6426"
           style="font-style:italic;font-variant:normal;font-weight:normal;font-stretch:normal;font-size:4.24466085px;line-height:1.25;font-family:Verdana;-inkscape-font-specification:'Verdana Italic';letter-spacing:0px;word-spacing:0px;fill:#000000;fill-opacity:1;stroke:none;stroke-width:0.2652913"
           d="m 52.293397,57.615591 c 0,0.03307 -0.0035,0.07786 -0.01039,0.134359 -0.0055,0.0565 -0.01385,0.106109 -0.02494,0.148828 l -0.349127,1.498616 h -0.390688 l 0.305485,-1.314648 c 0.01663,-0.07304 0.0291,-0.136426 0.03741,-0.190169 0.0097,-0.05512 0.01455,-0.109552 0.01455,-0.163297 0,-0.115756 -0.02909,-0.202572 -0.08728,-0.260449 -0.05681,-0.05925 -0.160021,-0.08888 -0.309643,-0.08888 -0.105291,0 -0.221666,0.02894 -0.349125,0.08682 -0.126074,0.05788 -0.249377,0.126782 -0.369908,0.206706 l -0.401081,1.723925 h -0.390689 l 0.74605,-3.21634 h 0.39069 l -0.270158,1.163753 c 0.148241,-0.103353 0.286783,-0.18259 0.415627,-0.237711 0.13023,-0.05512 0.263923,-0.08268 0.40108,-0.08268 0.202271,0 0.359517,0.05099 0.471737,0.152963 0.113604,0.100597 0.170406,0.246668 0.170406,0.438215 z"
           sodipodi:nodetypes="cccccccscsccccccccsccc" />
        <path
           inkscape:connector-curvature="0"
           id="path6428"
           style="font-style:italic;font-variant:normal;font-weight:normal;font-stretch:normal;font-size:4.24466085px;line-height:1.25;font-family:Verdana;-inkscape-font-specification:'Verdana Italic';letter-spacing:0px;word-spacing:0px;fill:#000000;fill-opacity:1;stroke:none;stroke-width:0.2652913"
           d="m 54.402703,57.088491 -0.07066,0.314194 h -0.806316 l -0.249376,1.064534 c -0.01386,0.05374 -0.02633,0.115752 -0.03741,0.186035 -0.01108,0.0689 -0.01662,0.124024 -0.01662,0.165365 0,0.100597 0.02563,0.1757 0.0769,0.225309 0.05127,0.04823 0.146168,0.07235 0.284704,0.07235 0.05681,0 0.124,-0.0096 0.201579,-0.02894 0.07897,-0.01929 0.132308,-0.03445 0.160017,-0.04548 h 0.02079 l -0.07273,0.334864 c -0.07758,0.01929 -0.16071,0.03514 -0.249377,0.04754 -0.08728,0.0124 -0.164865,0.0186 -0.232751,0.0186 -0.191188,0 -0.339428,-0.04134 -0.44472,-0.124023 -0.103907,-0.08406 -0.155861,-0.216352 -0.155861,-0.396875 0,-0.04409 0.0028,-0.0875 0.0083,-0.130224 0.0069,-0.04409 0.01593,-0.0937 0.02701,-0.148828 l 0.288861,-1.240234 h -0.263924 l 0.07066,-0.314194 h 0.263923 l 0.15586,-0.663525 h 0.39069 l -0.15586,0.663525 z"
           sodipodi:nodetypes="cccccscscccccscscccccccccc" />
        <path
           inkscape:connector-curvature="0"
           id="path6430"
           style="font-style:italic;font-variant:normal;font-weight:normal;font-stretch:normal;font-size:4.24466085px;line-height:1.25;font-family:Verdana;-inkscape-font-specification:'Verdana Italic';letter-spacing:0px;word-spacing:0px;fill:#000000;fill-opacity:1;stroke:none;stroke-width:0.2652913"
           d="m 57.53653,58.179898 c -0.213355,0.0083 -0.403158,0.02481 -0.569409,0.04961 -0.164865,0.02343 -0.301329,0.05788 -0.409392,0.103353 -0.112219,0.04548 -0.197423,0.107492 -0.25561,0.186035 -0.05819,0.07717 -0.08728,0.173633 -0.08728,0.289388 0,0.09922 0.03394,0.175011 0.101829,0.227376 0.06788,0.05237 0.173177,0.07855 0.315876,0.07855 0.126073,0 0.254225,-0.02756 0.384455,-0.08268 0.131615,-0.0565 0.254224,-0.124024 0.367829,-0.202571 z m -0.226516,0.971516 c -0.03741,0.02205 -0.08867,0.05374 -0.153782,0.09509 -0.06373,0.03997 -0.128848,0.07442 -0.195345,0.103352 -0.07066,0.03169 -0.149626,0.05788 -0.236907,0.07855 -0.08728,0.02205 -0.187725,0.03307 -0.30133,0.03307 -0.184261,0 -0.333886,-0.05306 -0.448877,-0.159165 -0.11499,-0.107487 -0.172485,-0.247357 -0.172485,-0.419612 0,-0.183279 0.04018,-0.337619 0.120532,-0.463021 0.08174,-0.126779 0.202272,-0.230132 0.361595,-0.310058 0.156553,-0.07855 0.344971,-0.135048 0.565252,-0.169498 0.221669,-0.03583 0.473816,-0.05788 0.756442,-0.06614 0.0083,-0.03859 0.01524,-0.07166 0.02078,-0.09921 0.0055,-0.02893 0.0083,-0.05856 0.0083,-0.08888 0,-0.06614 -0.01316,-0.119884 -0.03949,-0.161231 -0.02632,-0.04134 -0.06373,-0.07441 -0.112219,-0.09921 -0.04849,-0.02481 -0.105289,-0.04134 -0.170407,-0.04961 -0.06373,-0.0096 -0.134383,-0.01447 -0.21197,-0.01447 -0.117761,0 -0.252146,0.01929 -0.403157,0.05788 -0.151012,0.03721 -0.273622,0.07441 -0.367831,0.111622 h -0.02078 l 0.0769,-0.388606 c 0.07897,-0.02067 0.194652,-0.0441 0.347049,-0.07028 0.152396,-0.02618 0.298558,-0.03927 0.438486,-0.03927 0.288168,0 0.504294,0.04479 0.648377,0.134359 0.144084,0.08957 0.216126,0.231511 0.216126,0.425814 0,0.03721 -0.0035,0.07717 -0.01039,0.119889 -0.0055,0.04134 -0.01246,0.08061 -0.02078,0.117823 l -0.363674,1.566828 h -0.388611 z"
           sodipodi:nodetypes="ccccscscccccccscscccccscccsccccsscsccccc" />
        <path
           inkscape:connector-curvature="0"
           id="path6432"
           style="font-style:italic;font-variant:normal;font-weight:normal;font-stretch:normal;font-size:4.24466085px;line-height:1.25;font-family:Verdana;-inkscape-font-specification:'Verdana Italic';letter-spacing:0px;word-spacing:0px;fill:#000000;fill-opacity:1;stroke:none;stroke-width:0.2652913"
           d="m 60.72231,57.615591 c 0,0.03307 -0.0035,0.07786 -0.01039,0.134359 -0.0055,0.0565 -0.01385,0.106109 -0.02494,0.148828 l -0.349127,1.498616 H 59.94717 l 0.305486,-1.314648 c 0.01663,-0.07304 0.0291,-0.136426 0.03741,-0.190169 0.0097,-0.05512 0.01455,-0.109552 0.01455,-0.163297 0,-0.115756 -0.02909,-0.202572 -0.08728,-0.260449 -0.05681,-0.05925 -0.160021,-0.08888 -0.309643,-0.08888 -0.105291,0 -0.221667,0.02894 -0.349127,0.08682 -0.126073,0.05788 -0.249375,0.126782 -0.369907,0.206706 l -0.40108,1.723925 H 58.39689 l 0.536158,-2.308903 h 0.39069 l -0.06027,0.256316 c 0.14824,-0.103353 0.286782,-0.18259 0.415627,-0.237711 0.130229,-0.05512 0.263922,-0.08268 0.401079,-0.08268 0.202272,0 0.359518,0.05099 0.471737,0.152963 0.113605,0.100597 0.170407,0.246668 0.170407,0.438215 z"
           sodipodi:nodetypes="cccccccscsccccccccsccc" />
        <path
           inkscape:connector-curvature="0"
           id="path6434"
           style="font-style:italic;font-variant:normal;font-weight:normal;font-stretch:normal;font-size:4.24466085px;line-height:1.25;font-family:Verdana;-inkscape-font-specification:'Verdana Italic';letter-spacing:0px;word-spacing:0px;fill:#000000;fill-opacity:1;stroke:none;stroke-width:0.2652913"
           d="m 63.721059,56.181054 -0.748128,3.21634 h -0.39069 l 0.05611,-0.241845 c -0.175949,0.119889 -0.317955,0.200504 -0.426017,0.241845 -0.106678,0.04272 -0.223054,0.06408 -0.349127,0.06408 -0.218897,0 -0.392767,-0.0689 -0.521612,-0.206706 -0.127459,-0.137804 -0.191188,-0.338309 -0.191188,-0.601514 0,-0.221864 0.03464,-0.431326 0.103906,-0.628385 0.06927,-0.198438 0.16348,-0.372071 0.282626,-0.520898 0.117761,-0.147451 0.256997,-0.263895 0.417706,-0.349334 0.160709,-0.08682 0.331115,-0.130224 0.51122,-0.130224 0.123303,0 0.236908,0.01309 0.340815,0.03928 0.103907,0.02618 0.200886,0.06545 0.290938,0.117822 l 0.232751,-1.000455 z m -0.698253,1.322917 c -0.09282,-0.04823 -0.184261,-0.08337 -0.274314,-0.10542 -0.08867,-0.02343 -0.183568,-0.03514 -0.284704,-0.03514 -0.144084,0 -0.272929,0.03445 -0.386534,0.103352 -0.112219,0.0689 -0.208506,0.163298 -0.288861,0.283187 -0.07343,0.108865 -0.130229,0.239778 -0.170406,0.39274 -0.03879,0.152963 -0.05819,0.301103 -0.05819,0.444418 0,0.168121 0.03602,0.296967 0.108063,0.38654 0.07343,0.08819 0.191882,0.132291 0.355361,0.132291 0.116375,0 0.234829,-0.02894 0.355361,-0.08682 0.121917,-0.05788 0.234136,-0.12127 0.336658,-0.190169 z"
           sodipodi:nodetypes="cccccscscccsccccccscccscsccc" />
        <path
           inkscape:connector-curvature="0"
           id="path6436"
           style="font-style:italic;font-variant:normal;font-weight:normal;font-stretch:normal;font-size:4.24466085px;line-height:1.25;font-family:Verdana;-inkscape-font-specification:'Verdana Italic';letter-spacing:0px;word-spacing:0px;fill:#000000;fill-opacity:1;stroke:none;stroke-width:0.2652913"
           d="m 66.337431,59.453205 c -0.200887,0 -0.392076,-0.02067 -0.573566,-0.06201 -0.181491,-0.04272 -0.359517,-0.107488 -0.53408,-0.194304 l 0.09975,-0.469222 h 0.0291 c 0.133001,0.125401 0.295788,0.221864 0.488362,0.289388 0.193959,0.06614 0.380991,0.09921 0.561096,0.09921 0.295095,0 0.520918,-0.05788 0.677471,-0.173632 0.157938,-0.117133 0.236907,-0.265961 0.236907,-0.446484 0,-0.09508 -0.0284,-0.174323 -0.08521,-0.237712 -0.05541,-0.06339 -0.137153,-0.110247 -0.245219,-0.14056 -0.09005,-0.02481 -0.197423,-0.04823 -0.322111,-0.07028 -0.123303,-0.02343 -0.241064,-0.04823 -0.353283,-0.07441 -0.217512,-0.04823 -0.385841,-0.130915 -0.504987,-0.248046 -0.119147,-0.117133 -0.17872,-0.262517 -0.17872,-0.43615 0,-0.293522 0.124688,-0.537435 0.374065,-0.731738 0.250762,-0.195681 0.574258,-0.293522 0.970489,-0.293522 0.216126,0 0.412163,0.02274 0.588111,0.06821 0.177335,0.04409 0.329731,0.09646 0.45719,0.157096 l -0.09352,0.440283 h -0.0291 c -0.09837,-0.08957 -0.238986,-0.166742 -0.421861,-0.23151 -0.18149,-0.06477 -0.372678,-0.09715 -0.573565,-0.09715 -0.252147,0 -0.453726,0.05512 -0.604737,0.165365 -0.149625,0.110243 -0.224438,0.250114 -0.224438,0.419612 0,0.09095 0.02702,0.170877 0.08105,0.239779 0.05403,0.0689 0.15032,0.120578 0.288861,0.155029 0.08867,0.02067 0.206428,0.04617 0.353283,0.07649 0.146855,0.02893 0.270158,0.05649 0.369908,0.08268 0.19673,0.05374 0.345663,0.133666 0.446798,0.239778 0.102522,0.106109 0.153783,0.239779 0.153783,0.401009 0,0.135048 -0.03325,0.269407 -0.09975,0.403077 -0.0665,0.133669 -0.159324,0.248046 -0.278471,0.343131 -0.127459,0.101975 -0.277084,0.181901 -0.448877,0.239779 -0.170407,0.05788 -0.371986,0.08682 -0.604736,0.08682 z"
           sodipodi:nodetypes="ccccccscscccccscscccccscssccccsccccc" />
        <path
           inkscape:connector-curvature="0"
           id="path6438"
           style="font-style:italic;font-variant:normal;font-weight:normal;font-stretch:normal;font-size:4.24466085px;line-height:1.25;font-family:Verdana;-inkscape-font-specification:'Verdana Italic';letter-spacing:0px;word-spacing:0px;fill:#000000;fill-opacity:1;stroke:none;stroke-width:0.2652913"
           d="m 70.429276,57.90498 c 0,0.206705 -0.03187,0.405143 -0.0956,0.595312 -0.06373,0.190169 -0.153786,0.355533 -0.270157,0.496093 -0.120533,0.146073 -0.259768,0.26045 -0.417706,0.343132 -0.157938,0.08131 -0.342199,0.121957 -0.552783,0.121957 -0.275699,0 -0.491133,-0.07786 -0.6463,-0.233578 -0.153782,-0.157097 -0.230673,-0.373449 -0.230673,-0.649057 0,-0.206705 0.03117,-0.403765 0.09352,-0.591178 0.06373,-0.187413 0.155165,-0.354155 0.274314,-0.500227 0.11499,-0.14056 0.25561,-0.25287 0.421861,-0.336931 0.167636,-0.08406 0.350512,-0.12609 0.548627,-0.12609 0.267387,0 0.480049,0.07579 0.637987,0.227376 0.157939,0.151584 0.236908,0.369314 0.236908,0.653191 z m -0.635909,0.872297 c 0.07481,-0.110243 0.131615,-0.237711 0.170406,-0.382405 0.04018,-0.144695 0.06027,-0.297657 0.06027,-0.458886 0,-0.192926 -0.04641,-0.338998 -0.139234,-0.438217 -0.09283,-0.09922 -0.223751,-0.148829 -0.392773,-0.148829 -0.134385,0 -0.254917,0.03238 -0.361596,0.09715 -0.106677,0.06339 -0.198808,0.150892 -0.276391,0.262516 -0.07481,0.108865 -0.132308,0.236333 -0.172485,0.382406 -0.04018,0.146071 -0.06027,0.297655 -0.06027,0.454752 0,0.190169 0.04641,0.336241 0.139235,0.438216 0.09282,0.101975 0.224439,0.152962 0.394846,0.152962 0.133,0 0.253532,-0.0317 0.361595,-0.09509 0.108063,-0.06339 0.200194,-0.151581 0.276392,-0.264583 z"
           sodipodi:nodetypes="ccccscscccscccccscscccsssccc" />
        <path
           inkscape:connector-curvature="0"
           id="path6440"
           style="font-style:italic;font-variant:normal;font-weight:normal;font-stretch:normal;font-size:4.24466085px;line-height:1.25;font-family:Verdana;-inkscape-font-specification:'Verdana Italic';letter-spacing:0px;word-spacing:0px;fill:#000000;fill-opacity:1;stroke:none;stroke-width:0.2652913"
           d="m 73.193195,57.088491 -0.536159,2.308903 h -0.390689 l 0.06026,-0.256315 c -0.14824,0.100597 -0.286782,0.179145 -0.415627,0.235645 -0.127459,0.0565 -0.262537,0.08475 -0.405235,0.08475 -0.199501,0 -0.355362,-0.04961 -0.467581,-0.148829 -0.11222,-0.100597 -0.16833,-0.246669 -0.16833,-0.438216 0,-0.04685 0.0028,-0.09233 0.0083,-0.136426 0.0069,-0.04409 0.01593,-0.09439 0.02701,-0.150895 l 0.347049,-1.498617 h 0.390689 l -0.305486,1.314649 c -0.01247,0.05374 -0.02424,0.115063 -0.03532,0.183968 -0.01108,0.0689 -0.01662,0.123334 -0.01662,0.163297 0,0.118512 0.02979,0.207396 0.08936,0.266651 0.06095,0.05925 0.164168,0.08888 0.309643,0.08888 0.102521,0 0.21959,-0.02963 0.351205,-0.08888 0.133,-0.05925 0.25561,-0.127466 0.367829,-0.204639 l 0.399002,-1.723926 z"
           sodipodi:nodetypes="cccccscsccccccscscccc" />
        <path
           inkscape:connector-curvature="0"
           id="path6442"
           style="font-style:italic;font-variant:normal;font-weight:normal;font-stretch:normal;font-size:4.24466085px;line-height:1.25;font-family:Verdana;-inkscape-font-specification:'Verdana Italic';letter-spacing:0px;word-spacing:0px;fill:#000000;fill-opacity:1;stroke:none;stroke-width:0.2652913"
           d="m 75.751377,57.615591 c 0,0.03307 -0.0035,0.07786 -0.01039,0.134359 -0.0055,0.0565 -0.01385,0.106109 -0.02494,0.148828 l -0.349127,1.498616 h -0.390693 l 0.305486,-1.314648 c 0.01663,-0.07304 0.0291,-0.136426 0.03741,-0.190169 0.0097,-0.05512 0.01455,-0.109552 0.01455,-0.163297 0,-0.115756 -0.02909,-0.202572 -0.08728,-0.260449 -0.05681,-0.05925 -0.16002,-0.08888 -0.309641,-0.08888 -0.105292,0 -0.221668,0.02894 -0.349127,0.08682 -0.126073,0.05788 -0.249376,0.126782 -0.369908,0.206706 l -0.401079,1.723925 h -0.39069 l 0.536159,-2.308903 h 0.390689 l -0.06027,0.256316 c 0.14824,-0.103353 0.286782,-0.18259 0.415627,-0.237711 0.130229,-0.05512 0.263923,-0.08268 0.40108,-0.08268 0.202271,0 0.359517,0.05099 0.471736,0.152963 0.113605,0.100597 0.170407,0.246668 0.170407,0.438215 z"
           sodipodi:nodetypes="cccccccscsccccccccsccc" />
        <path
           inkscape:connector-curvature="0"
           id="path6444"
           style="font-style:italic;font-variant:normal;font-weight:normal;font-stretch:normal;font-size:4.24466085px;line-height:1.25;font-family:Verdana;-inkscape-font-specification:'Verdana Italic';letter-spacing:0px;word-spacing:0px;fill:#000000;fill-opacity:1;stroke:none;stroke-width:0.2652913"
           d="m 78.750124,56.181054 -0.748128,3.21634 h -0.390689 l 0.05611,-0.241845 c -0.175949,0.119889 -0.317955,0.200504 -0.426018,0.241845 -0.106677,0.04272 -0.223053,0.06408 -0.349127,0.06408 -0.218897,0 -0.392767,-0.0689 -0.521612,-0.206706 -0.127459,-0.137804 -0.191188,-0.338309 -0.191188,-0.601514 0,-0.221864 0.03464,-0.431326 0.103907,-0.628385 0.06927,-0.198438 0.163479,-0.372071 0.282626,-0.520898 0.117761,-0.147451 0.256996,-0.263895 0.417705,-0.349334 0.160709,-0.08682 0.331116,-0.130224 0.511221,-0.130224 0.123303,0 0.236907,0.01309 0.340814,0.03928 0.103907,0.02618 0.200886,0.06545 0.290939,0.117822 l 0.23275,-1.000455 z m -0.698253,1.322917 c -0.09282,-0.04823 -0.184261,-0.08337 -0.274313,-0.10542 -0.08867,-0.02343 -0.183569,-0.03514 -0.284705,-0.03514 -0.144084,0 -0.272928,0.03445 -0.386533,0.103352 -0.112219,0.0689 -0.208506,0.163298 -0.288861,0.283187 -0.07343,0.108865 -0.13023,0.239778 -0.170407,0.39274 -0.03879,0.152963 -0.05819,0.301103 -0.05819,0.444418 0,0.168121 0.03602,0.296967 0.108064,0.38654 0.07343,0.08819 0.191881,0.132291 0.35536,0.132291 0.116376,0 0.23483,-0.02894 0.355361,-0.08682 0.121917,-0.05788 0.234137,-0.12127 0.336658,-0.190169 z"
           sodipodi:nodetypes="cccccscscccsccccccscccscsccc" />
      </g>
    </g>
    <flowRoot
       xml:space="preserve"
       id="flowRoot6179"
       style="fill:black;fill-opacity:1;stroke:none;font-family:Arimo;font-style:normal;font-weight:normal;font-size:24px;line-height:1.25;letter-spacing:0px;word-spacing:0px;-inkscape-font-specification:Arimo;font-stretch:normal;font-variant:normal"><flowRegion
         id="flowRegion6181"><rect
           id="rect6183"
           width="205.06097"
           height="24.748737"
           x="40.911179"
           y="214.89763" /></flowRegion><flowPara
         id="flowPara6185"></flowPara></flowRoot>    <flowRoot
       xml:space="preserve"
       id="flowRoot6392"
       style="fill:black;fill-opacity:1;stroke:none;font-family:Arimo;font-style:normal;font-weight:normal;font-size:24px;line-height:1.25;letter-spacing:0px;word-spacing:0px;-inkscape-font-specification:Arimo;font-stretch:normal;font-variant:normal"><flowRegion
         id="flowRegion6394"><rect
           id="rect6396"
           width="384.36304"
           height="97.479721"
           x="40.911179"
           y="143.17679" /></flowRegion><flowPara
         id="flowPara6398"></flowPara></flowRoot>  </g>
</svg>
